G75*
%MOIN*%
%OFA0B0*%
%FSLAX25Y25*%
%IPPOS*%
%LPD*%
%AMOC8*
5,1,8,0,0,1.08239X$1,22.5*
%
%ADD10R,0.02200X0.05000*%
%ADD11R,0.05000X0.02200*%
%ADD12C,0.00875*%
%ADD13C,0.00750*%
%ADD14R,0.04000X0.04500*%
%ADD15OC8,0.06600*%
%ADD16C,0.06600*%
%ADD17R,0.01772X0.03346*%
%ADD18R,0.09843X0.06299*%
%ADD19R,0.07000X0.07000*%
%ADD20OC8,0.07000*%
%ADD21C,0.15000*%
%ADD22R,0.03000X0.04500*%
%ADD23C,0.01600*%
%ADD24C,0.03369*%
D10*
X0099060Y0044100D03*
X0102209Y0044100D03*
X0105359Y0044100D03*
X0108509Y0044100D03*
X0111658Y0044100D03*
X0114808Y0044100D03*
X0117957Y0044100D03*
X0121107Y0044100D03*
X0121107Y0077900D03*
X0117957Y0077900D03*
X0114808Y0077900D03*
X0111658Y0077900D03*
X0108509Y0077900D03*
X0105359Y0077900D03*
X0102209Y0077900D03*
X0099060Y0077900D03*
D11*
X0093183Y0072024D03*
X0093183Y0068874D03*
X0093183Y0065724D03*
X0093183Y0062575D03*
X0093183Y0059425D03*
X0093183Y0056276D03*
X0093183Y0053126D03*
X0093183Y0049976D03*
X0126983Y0049976D03*
X0126983Y0053126D03*
X0126983Y0056276D03*
X0126983Y0059425D03*
X0126983Y0062575D03*
X0126983Y0065724D03*
X0126983Y0068874D03*
X0126983Y0072024D03*
D12*
X0112896Y0087313D02*
X0110270Y0087313D01*
X0112896Y0087313D02*
X0112896Y0084687D01*
X0110270Y0084687D01*
X0110270Y0087313D01*
X0110270Y0085561D02*
X0112896Y0085561D01*
X0112896Y0086435D02*
X0110270Y0086435D01*
X0110270Y0087309D02*
X0112896Y0087309D01*
X0112896Y0093313D02*
X0110270Y0093313D01*
X0112896Y0093313D02*
X0112896Y0090687D01*
X0110270Y0090687D01*
X0110270Y0093313D01*
X0110270Y0091561D02*
X0112896Y0091561D01*
X0112896Y0092435D02*
X0110270Y0092435D01*
X0110270Y0093309D02*
X0112896Y0093309D01*
X0110270Y0097187D02*
X0110270Y0099813D01*
X0112896Y0099813D01*
X0112896Y0097187D01*
X0110270Y0097187D01*
X0110270Y0098061D02*
X0112896Y0098061D01*
X0112896Y0098935D02*
X0110270Y0098935D01*
X0110270Y0099809D02*
X0112896Y0099809D01*
X0110270Y0103187D02*
X0110270Y0105813D01*
X0112896Y0105813D01*
X0112896Y0103187D01*
X0110270Y0103187D01*
X0110270Y0104061D02*
X0112896Y0104061D01*
X0112896Y0104935D02*
X0110270Y0104935D01*
X0110270Y0105809D02*
X0112896Y0105809D01*
X0104270Y0105813D02*
X0104270Y0103187D01*
X0104270Y0105813D02*
X0106896Y0105813D01*
X0106896Y0103187D01*
X0104270Y0103187D01*
X0104270Y0104061D02*
X0106896Y0104061D01*
X0106896Y0104935D02*
X0104270Y0104935D01*
X0104270Y0105809D02*
X0106896Y0105809D01*
X0104270Y0099813D02*
X0104270Y0097187D01*
X0104270Y0099813D02*
X0106896Y0099813D01*
X0106896Y0097187D01*
X0104270Y0097187D01*
X0104270Y0098061D02*
X0106896Y0098061D01*
X0106896Y0098935D02*
X0104270Y0098935D01*
X0104270Y0099809D02*
X0106896Y0099809D01*
X0106896Y0093313D02*
X0104270Y0093313D01*
X0106896Y0093313D02*
X0106896Y0090687D01*
X0104270Y0090687D01*
X0104270Y0093313D01*
X0104270Y0091561D02*
X0106896Y0091561D01*
X0106896Y0092435D02*
X0104270Y0092435D01*
X0104270Y0093309D02*
X0106896Y0093309D01*
X0106896Y0087313D02*
X0104270Y0087313D01*
X0106896Y0087313D02*
X0106896Y0084687D01*
X0104270Y0084687D01*
X0104270Y0087313D01*
X0104270Y0085561D02*
X0106896Y0085561D01*
X0106896Y0086435D02*
X0104270Y0086435D01*
X0104270Y0087309D02*
X0106896Y0087309D01*
X0094896Y0087313D02*
X0092270Y0087313D01*
X0094896Y0087313D02*
X0094896Y0084687D01*
X0092270Y0084687D01*
X0092270Y0087313D01*
X0092270Y0085561D02*
X0094896Y0085561D01*
X0094896Y0086435D02*
X0092270Y0086435D01*
X0092270Y0087309D02*
X0094896Y0087309D01*
X0088896Y0087313D02*
X0086270Y0087313D01*
X0088896Y0087313D02*
X0088896Y0084687D01*
X0086270Y0084687D01*
X0086270Y0087313D01*
X0086270Y0085561D02*
X0088896Y0085561D01*
X0088896Y0086435D02*
X0086270Y0086435D01*
X0086270Y0087309D02*
X0088896Y0087309D01*
X0081896Y0060813D02*
X0079270Y0060813D01*
X0081896Y0060813D02*
X0081896Y0058187D01*
X0079270Y0058187D01*
X0079270Y0060813D01*
X0079270Y0059061D02*
X0081896Y0059061D01*
X0081896Y0059935D02*
X0079270Y0059935D01*
X0079270Y0060809D02*
X0081896Y0060809D01*
X0075896Y0060813D02*
X0073270Y0060813D01*
X0075896Y0060813D02*
X0075896Y0058187D01*
X0073270Y0058187D01*
X0073270Y0060813D01*
X0073270Y0059061D02*
X0075896Y0059061D01*
X0075896Y0059935D02*
X0073270Y0059935D01*
X0073270Y0060809D02*
X0075896Y0060809D01*
X0075896Y0049687D02*
X0073270Y0049687D01*
X0073270Y0052313D01*
X0075896Y0052313D01*
X0075896Y0049687D01*
X0075896Y0050561D02*
X0073270Y0050561D01*
X0073270Y0051435D02*
X0075896Y0051435D01*
X0075896Y0052309D02*
X0073270Y0052309D01*
X0079270Y0049687D02*
X0081896Y0049687D01*
X0079270Y0049687D02*
X0079270Y0052313D01*
X0081896Y0052313D01*
X0081896Y0049687D01*
X0081896Y0050561D02*
X0079270Y0050561D01*
X0079270Y0051435D02*
X0081896Y0051435D01*
X0081896Y0052309D02*
X0079270Y0052309D01*
X0186396Y0046813D02*
X0186396Y0044187D01*
X0183770Y0044187D01*
X0183770Y0046813D01*
X0186396Y0046813D01*
X0186396Y0045061D02*
X0183770Y0045061D01*
X0183770Y0045935D02*
X0186396Y0045935D01*
X0186396Y0046809D02*
X0183770Y0046809D01*
X0186396Y0040813D02*
X0186396Y0038187D01*
X0183770Y0038187D01*
X0183770Y0040813D01*
X0186396Y0040813D01*
X0186396Y0039061D02*
X0183770Y0039061D01*
X0183770Y0039935D02*
X0186396Y0039935D01*
X0186396Y0040809D02*
X0183770Y0040809D01*
X0213896Y0082187D02*
X0213896Y0084813D01*
X0213896Y0082187D02*
X0211270Y0082187D01*
X0211270Y0084813D01*
X0213896Y0084813D01*
X0213896Y0083061D02*
X0211270Y0083061D01*
X0211270Y0083935D02*
X0213896Y0083935D01*
X0213896Y0084809D02*
X0211270Y0084809D01*
X0213896Y0088187D02*
X0213896Y0090813D01*
X0213896Y0088187D02*
X0211270Y0088187D01*
X0211270Y0090813D01*
X0213896Y0090813D01*
X0213896Y0089061D02*
X0211270Y0089061D01*
X0211270Y0089935D02*
X0213896Y0089935D01*
X0213896Y0090809D02*
X0211270Y0090809D01*
X0213270Y0097187D02*
X0215896Y0097187D01*
X0213270Y0097187D02*
X0213270Y0099813D01*
X0215896Y0099813D01*
X0215896Y0097187D01*
X0215896Y0098061D02*
X0213270Y0098061D01*
X0213270Y0098935D02*
X0215896Y0098935D01*
X0215896Y0099809D02*
X0213270Y0099809D01*
X0219270Y0097187D02*
X0221896Y0097187D01*
X0219270Y0097187D02*
X0219270Y0099813D01*
X0221896Y0099813D01*
X0221896Y0097187D01*
X0221896Y0098061D02*
X0219270Y0098061D01*
X0219270Y0098935D02*
X0221896Y0098935D01*
X0221896Y0099809D02*
X0219270Y0099809D01*
X0227770Y0099813D02*
X0230396Y0099813D01*
X0230396Y0097187D01*
X0227770Y0097187D01*
X0227770Y0099813D01*
X0227770Y0098061D02*
X0230396Y0098061D01*
X0230396Y0098935D02*
X0227770Y0098935D01*
X0227770Y0099809D02*
X0230396Y0099809D01*
X0233770Y0099813D02*
X0236396Y0099813D01*
X0236396Y0097187D01*
X0233770Y0097187D01*
X0233770Y0099813D01*
X0233770Y0098061D02*
X0236396Y0098061D01*
X0236396Y0098935D02*
X0233770Y0098935D01*
X0233770Y0099809D02*
X0236396Y0099809D01*
X0161270Y0116687D02*
X0161270Y0119313D01*
X0163896Y0119313D01*
X0163896Y0116687D01*
X0161270Y0116687D01*
X0161270Y0117561D02*
X0163896Y0117561D01*
X0163896Y0118435D02*
X0161270Y0118435D01*
X0161270Y0119309D02*
X0163896Y0119309D01*
X0161270Y0122687D02*
X0161270Y0125313D01*
X0163896Y0125313D01*
X0163896Y0122687D01*
X0161270Y0122687D01*
X0161270Y0123561D02*
X0163896Y0123561D01*
X0163896Y0124435D02*
X0161270Y0124435D01*
X0161270Y0125309D02*
X0163896Y0125309D01*
D13*
X0079958Y0105125D02*
X0079958Y0102875D01*
X0077208Y0102875D01*
X0077208Y0105125D01*
X0079958Y0105125D01*
X0079958Y0103624D02*
X0077208Y0103624D01*
X0077208Y0104373D02*
X0079958Y0104373D01*
X0079958Y0105122D02*
X0077208Y0105122D01*
X0079958Y0099125D02*
X0079958Y0096875D01*
X0077208Y0096875D01*
X0077208Y0099125D01*
X0079958Y0099125D01*
X0079958Y0097624D02*
X0077208Y0097624D01*
X0077208Y0098373D02*
X0079958Y0098373D01*
X0079958Y0099122D02*
X0077208Y0099122D01*
D14*
X0074083Y0075000D03*
X0081083Y0075000D03*
X0077583Y0067000D03*
D15*
X0055083Y0101000D03*
X0119583Y0030000D03*
D16*
X0109583Y0030000D03*
X0099583Y0030000D03*
X0099583Y0020000D03*
X0109583Y0020000D03*
X0119583Y0020000D03*
X0055083Y0051000D03*
X0055083Y0061000D03*
X0055083Y0071000D03*
X0055083Y0081000D03*
X0055083Y0091000D03*
D17*
X0148646Y0115291D03*
X0152583Y0115291D03*
X0156520Y0115291D03*
X0156520Y0126709D03*
X0152583Y0126709D03*
X0148646Y0126709D03*
D18*
X0152583Y0121000D03*
D19*
X0200012Y0038434D03*
D20*
X0210012Y0038434D03*
X0220012Y0038434D03*
X0230012Y0038434D03*
X0230012Y0048434D03*
X0220012Y0048434D03*
X0210012Y0048434D03*
X0200012Y0048434D03*
D21*
X0037646Y0048441D03*
X0037646Y0103559D03*
D22*
X0220083Y0090300D03*
X0225083Y0090300D03*
X0230083Y0090300D03*
X0235083Y0090300D03*
X0235083Y0071700D03*
X0230083Y0071700D03*
X0225083Y0071700D03*
X0220083Y0071700D03*
D23*
X0027669Y0014729D02*
X0025907Y0018017D01*
X0024998Y0021635D01*
X0024883Y0023500D01*
X0024883Y0133500D01*
X0025013Y0135484D01*
X0026040Y0139317D01*
X0028024Y0142753D01*
X0030830Y0145559D01*
X0034267Y0147543D01*
X0038099Y0148570D01*
X0040083Y0148700D01*
X0270083Y0148700D01*
X0272067Y0148570D01*
X0275900Y0147543D01*
X0279337Y0145559D01*
X0282142Y0142753D01*
X0284126Y0139317D01*
X0285153Y0135484D01*
X0285283Y0133500D01*
X0285283Y0023500D01*
X0285168Y0021635D01*
X0284260Y0018017D01*
X0282498Y0014729D01*
X0279988Y0011970D01*
X0276881Y0009905D01*
X0273365Y0008658D01*
X0269651Y0008306D01*
X0265964Y0008869D01*
X0262524Y0010313D01*
X0261059Y0011277D01*
X0260536Y0011800D01*
X0260350Y0011800D01*
X0260201Y0011912D01*
X0259420Y0011800D01*
X0050747Y0011800D01*
X0049965Y0011912D01*
X0049817Y0011800D01*
X0049631Y0011800D01*
X0049108Y0011277D01*
X0047642Y0010313D01*
X0044203Y0008869D01*
X0040515Y0008306D01*
X0036802Y0008658D01*
X0033286Y0009905D01*
X0030179Y0011970D01*
X0027669Y0014729D01*
X0027669Y0014729D01*
X0027883Y0014494D02*
X0282284Y0014494D01*
X0283229Y0016093D02*
X0122323Y0016093D01*
X0122246Y0016016D02*
X0123568Y0017338D01*
X0124283Y0019065D01*
X0124283Y0020935D01*
X0123568Y0022662D01*
X0122246Y0023984D01*
X0120518Y0024700D01*
X0118648Y0024700D01*
X0118186Y0024508D01*
X0116783Y0025911D01*
X0116783Y0026153D01*
X0117637Y0025300D01*
X0121530Y0025300D01*
X0124283Y0028053D01*
X0124283Y0031947D01*
X0121530Y0034700D01*
X0117637Y0034700D01*
X0116783Y0033847D01*
X0116783Y0035800D01*
X0129995Y0035800D01*
X0140495Y0046300D01*
X0181172Y0046300D01*
X0181933Y0045539D01*
X0181933Y0043426D01*
X0182918Y0042442D01*
X0182643Y0042283D01*
X0182300Y0041941D01*
X0182059Y0041522D01*
X0181933Y0041054D01*
X0181933Y0039575D01*
X0185008Y0039575D01*
X0185008Y0039425D01*
X0181933Y0039425D01*
X0181933Y0037946D01*
X0182059Y0037478D01*
X0182300Y0037059D01*
X0182643Y0036717D01*
X0183062Y0036475D01*
X0183529Y0036350D01*
X0185008Y0036350D01*
X0185008Y0039425D01*
X0185158Y0039425D01*
X0185158Y0036350D01*
X0186638Y0036350D01*
X0187105Y0036475D01*
X0187524Y0036717D01*
X0187866Y0037059D01*
X0188108Y0037478D01*
X0188233Y0037946D01*
X0188233Y0039425D01*
X0185158Y0039425D01*
X0185158Y0039575D01*
X0188233Y0039575D01*
X0188233Y0041054D01*
X0188108Y0041522D01*
X0187866Y0041941D01*
X0187524Y0042283D01*
X0187249Y0042442D01*
X0188107Y0043300D01*
X0196202Y0043300D01*
X0195971Y0043238D01*
X0195652Y0043054D01*
X0195392Y0042793D01*
X0195207Y0042474D01*
X0195112Y0042118D01*
X0195112Y0038618D01*
X0199828Y0038618D01*
X0199828Y0043334D01*
X0198028Y0043334D01*
X0198228Y0043534D01*
X0202042Y0043534D01*
X0202883Y0044376D01*
X0202883Y0043334D01*
X0200196Y0043334D01*
X0200196Y0038618D01*
X0199828Y0038618D01*
X0199828Y0038250D01*
X0199828Y0038249D02*
X0200196Y0038249D01*
X0200196Y0033534D01*
X0203696Y0033534D01*
X0204052Y0033629D01*
X0204371Y0033814D01*
X0204632Y0034074D01*
X0204816Y0034393D01*
X0204912Y0034749D01*
X0204912Y0038250D01*
X0200196Y0038250D01*
X0200196Y0038618D01*
X0204912Y0038618D01*
X0204912Y0040423D01*
X0205112Y0040223D01*
X0205112Y0036404D01*
X0207982Y0033534D01*
X0212042Y0033534D01*
X0214912Y0036404D01*
X0214912Y0040463D01*
X0212042Y0043334D01*
X0208223Y0043334D01*
X0208023Y0043534D01*
X0212042Y0043534D01*
X0214912Y0046404D01*
X0214912Y0050463D01*
X0212283Y0053092D01*
X0212283Y0061838D01*
X0212698Y0062253D01*
X0213168Y0063386D01*
X0213168Y0064613D01*
X0212883Y0065300D01*
X0217883Y0065300D01*
X0217883Y0053235D01*
X0215112Y0050463D01*
X0215112Y0046404D01*
X0217982Y0043534D01*
X0221506Y0043534D01*
X0221306Y0043334D01*
X0217982Y0043334D01*
X0215112Y0040463D01*
X0215112Y0036404D01*
X0217982Y0033534D01*
X0222042Y0033534D01*
X0224912Y0036404D01*
X0224912Y0040463D01*
X0224785Y0040590D01*
X0225995Y0041800D01*
X0227283Y0043089D01*
X0227283Y0044233D01*
X0227982Y0043534D01*
X0231999Y0043534D01*
X0231999Y0043334D01*
X0227982Y0043334D01*
X0225112Y0040463D01*
X0225112Y0036404D01*
X0227982Y0033534D01*
X0232042Y0033534D01*
X0234808Y0036300D01*
X0237495Y0036300D01*
X0238783Y0037589D01*
X0240783Y0039589D01*
X0240783Y0075911D01*
X0239495Y0077200D01*
X0236108Y0080586D01*
X0236830Y0080885D01*
X0237698Y0081753D01*
X0238168Y0082886D01*
X0238168Y0084113D01*
X0237698Y0085247D01*
X0237283Y0085662D01*
X0237283Y0086770D01*
X0237983Y0087470D01*
X0237983Y0093130D01*
X0237283Y0093830D01*
X0237283Y0095476D01*
X0238233Y0096426D01*
X0238233Y0100574D01*
X0237157Y0101650D01*
X0233010Y0101650D01*
X0232083Y0100724D01*
X0231157Y0101650D01*
X0227283Y0101650D01*
X0227283Y0122411D01*
X0225995Y0123700D01*
X0222995Y0126700D01*
X0180255Y0126700D01*
X0179892Y0128526D01*
X0177947Y0133221D01*
X0175123Y0137447D01*
X0171530Y0141040D01*
X0167304Y0143864D01*
X0162609Y0145809D01*
X0157624Y0146800D01*
X0152542Y0146800D01*
X0147558Y0145809D01*
X0142862Y0143864D01*
X0138637Y0141040D01*
X0135043Y0137447D01*
X0132220Y0133221D01*
X0130275Y0128526D01*
X0129812Y0126200D01*
X0119745Y0126200D01*
X0119330Y0126615D01*
X0118197Y0127084D01*
X0116970Y0127084D01*
X0115836Y0126615D01*
X0115422Y0126200D01*
X0107172Y0126200D01*
X0105883Y0124911D01*
X0104672Y0123700D01*
X0103383Y0122411D01*
X0103383Y0107524D01*
X0102433Y0106574D01*
X0102433Y0102426D01*
X0103360Y0101500D01*
X0102433Y0100574D01*
X0102433Y0096426D01*
X0103510Y0095350D01*
X0107657Y0095350D01*
X0108583Y0096276D01*
X0109383Y0095476D01*
X0109383Y0095024D01*
X0108525Y0094165D01*
X0108366Y0094441D01*
X0108024Y0094783D01*
X0107605Y0095025D01*
X0107138Y0095150D01*
X0105658Y0095150D01*
X0105658Y0092075D01*
X0105508Y0092075D01*
X0105508Y0091925D01*
X0102433Y0091925D01*
X0102433Y0090446D01*
X0102559Y0089978D01*
X0102800Y0089559D01*
X0103143Y0089217D01*
X0103519Y0089000D01*
X0103143Y0088783D01*
X0102800Y0088441D01*
X0102559Y0088022D01*
X0102433Y0087554D01*
X0102433Y0086075D01*
X0105508Y0086075D01*
X0105508Y0085925D01*
X0102433Y0085925D01*
X0102433Y0084446D01*
X0102559Y0083978D01*
X0102800Y0083559D01*
X0103143Y0083217D01*
X0103562Y0082975D01*
X0104029Y0082850D01*
X0105508Y0082850D01*
X0105508Y0085925D01*
X0105658Y0085925D01*
X0105658Y0082850D01*
X0107138Y0082850D01*
X0107605Y0082975D01*
X0108024Y0083217D01*
X0108366Y0083559D01*
X0108525Y0083835D01*
X0109383Y0082976D01*
X0109383Y0081800D01*
X0108509Y0081800D01*
X0108509Y0077900D01*
X0108509Y0074000D01*
X0109793Y0074000D01*
X0109939Y0074039D01*
X0109978Y0074000D01*
X0115472Y0074000D01*
X0113896Y0072424D01*
X0112608Y0071136D01*
X0112608Y0048000D01*
X0111658Y0048000D01*
X0110374Y0048000D01*
X0110228Y0047961D01*
X0110188Y0048000D01*
X0106829Y0048000D01*
X0106789Y0047961D01*
X0106643Y0048000D01*
X0105359Y0048000D01*
X0105359Y0044100D01*
X0105359Y0044100D01*
X0105359Y0040200D01*
X0106383Y0040200D01*
X0048999Y0040200D01*
X0045369Y0043829D01*
X0046546Y0046671D01*
X0046546Y0050211D01*
X0045191Y0053482D01*
X0042688Y0055986D01*
X0039783Y0057189D01*
X0039783Y0075089D01*
X0043495Y0078800D01*
X0050907Y0078800D01*
X0051099Y0078338D01*
X0052421Y0077016D01*
X0054148Y0076300D01*
X0056018Y0076300D01*
X0057746Y0077016D01*
X0059068Y0078338D01*
X0059259Y0078800D01*
X0070672Y0078800D01*
X0071163Y0078309D01*
X0070683Y0077830D01*
X0070683Y0072170D01*
X0071503Y0071350D01*
X0071883Y0071350D01*
X0071883Y0062024D01*
X0071433Y0061574D01*
X0071433Y0057426D01*
X0072510Y0056350D01*
X0076657Y0056350D01*
X0077583Y0057276D01*
X0078383Y0056476D01*
X0078383Y0054024D01*
X0077583Y0053224D01*
X0076657Y0054150D01*
X0072510Y0054150D01*
X0071560Y0053200D01*
X0059259Y0053200D01*
X0059068Y0053662D01*
X0057746Y0054984D01*
X0056018Y0055700D01*
X0054148Y0055700D01*
X0052421Y0054984D01*
X0051099Y0053662D01*
X0050383Y0051935D01*
X0050383Y0050065D01*
X0051099Y0048338D01*
X0052421Y0047016D01*
X0054148Y0046300D01*
X0056018Y0046300D01*
X0057746Y0047016D01*
X0059068Y0048338D01*
X0059259Y0048800D01*
X0071560Y0048800D01*
X0072510Y0047850D01*
X0076657Y0047850D01*
X0077583Y0048776D01*
X0078510Y0047850D01*
X0082657Y0047850D01*
X0083733Y0048926D01*
X0083733Y0053074D01*
X0082783Y0054024D01*
X0082783Y0056476D01*
X0083607Y0057300D01*
X0084783Y0057300D01*
X0084499Y0056613D01*
X0084499Y0055386D01*
X0084969Y0054253D01*
X0085722Y0053500D01*
X0084969Y0052747D01*
X0084499Y0051613D01*
X0084499Y0050386D01*
X0084969Y0049253D01*
X0085836Y0048385D01*
X0086970Y0047916D01*
X0088197Y0047916D01*
X0089283Y0048366D01*
X0089283Y0048296D01*
X0090103Y0047476D01*
X0096263Y0047476D01*
X0096563Y0047776D01*
X0097156Y0047776D01*
X0096560Y0047180D01*
X0096560Y0041020D01*
X0097380Y0040200D01*
X0103889Y0040200D01*
X0103928Y0040239D01*
X0104075Y0040200D01*
X0105359Y0040200D01*
X0105359Y0044100D01*
X0105359Y0044100D01*
X0105359Y0048000D01*
X0105195Y0048000D01*
X0107610Y0050416D01*
X0108197Y0050416D01*
X0109330Y0050885D01*
X0110198Y0051753D01*
X0110668Y0052886D01*
X0110668Y0054113D01*
X0110198Y0055247D01*
X0109330Y0056115D01*
X0108197Y0056584D01*
X0106970Y0056584D01*
X0105836Y0056115D01*
X0104969Y0055247D01*
X0104499Y0054113D01*
X0104499Y0053527D01*
X0103148Y0052176D01*
X0097083Y0052176D01*
X0097083Y0059638D01*
X0097336Y0059385D01*
X0098470Y0058916D01*
X0099697Y0058916D01*
X0100830Y0059385D01*
X0101698Y0060253D01*
X0102168Y0061386D01*
X0102168Y0062613D01*
X0101790Y0063524D01*
X0105219Y0063524D01*
X0106110Y0064416D01*
X0106197Y0064416D01*
X0107330Y0064885D01*
X0108198Y0065753D01*
X0108668Y0066886D01*
X0108668Y0068113D01*
X0108198Y0069247D01*
X0107330Y0070115D01*
X0106197Y0070584D01*
X0104970Y0070584D01*
X0103836Y0070115D01*
X0102969Y0069247D01*
X0102499Y0068113D01*
X0102499Y0067924D01*
X0097083Y0067924D01*
X0097083Y0073704D01*
X0096263Y0074524D01*
X0095783Y0074524D01*
X0095783Y0082976D01*
X0096733Y0083926D01*
X0096733Y0088074D01*
X0095657Y0089150D01*
X0091510Y0089150D01*
X0090583Y0088224D01*
X0089657Y0089150D01*
X0085510Y0089150D01*
X0084560Y0088200D01*
X0081995Y0088200D01*
X0080783Y0089411D01*
X0080783Y0095190D01*
X0081733Y0096140D01*
X0081733Y0099860D01*
X0080694Y0100900D01*
X0076473Y0100900D01*
X0075433Y0099860D01*
X0075433Y0096140D01*
X0076383Y0095190D01*
X0076383Y0087589D01*
X0077672Y0086300D01*
X0080172Y0083800D01*
X0084560Y0083800D01*
X0085510Y0082850D01*
X0089657Y0082850D01*
X0090583Y0083776D01*
X0091383Y0082976D01*
X0091383Y0074524D01*
X0090103Y0074524D01*
X0089283Y0073704D01*
X0089283Y0071074D01*
X0085121Y0071074D01*
X0084254Y0071941D01*
X0084483Y0072170D01*
X0084483Y0077830D01*
X0083663Y0078650D01*
X0078503Y0078650D01*
X0077683Y0077830D01*
X0077683Y0072170D01*
X0078503Y0071350D01*
X0078883Y0071350D01*
X0078883Y0071089D01*
X0079322Y0070650D01*
X0077783Y0070650D01*
X0077783Y0067200D01*
X0077383Y0067200D01*
X0077383Y0070650D01*
X0076283Y0070650D01*
X0076283Y0071350D01*
X0076663Y0071350D01*
X0077483Y0072170D01*
X0077483Y0077830D01*
X0076663Y0078650D01*
X0076283Y0078650D01*
X0076283Y0079411D01*
X0073783Y0081911D01*
X0072495Y0083200D01*
X0059259Y0083200D01*
X0059068Y0083662D01*
X0057746Y0084984D01*
X0056018Y0085700D01*
X0054148Y0085700D01*
X0052421Y0084984D01*
X0051099Y0083662D01*
X0050907Y0083200D01*
X0041672Y0083200D01*
X0040383Y0081911D01*
X0035383Y0076911D01*
X0035383Y0057137D01*
X0032605Y0055986D01*
X0030101Y0053482D01*
X0028746Y0050211D01*
X0028746Y0046671D01*
X0030101Y0043399D01*
X0032605Y0040896D01*
X0035876Y0039541D01*
X0039417Y0039541D01*
X0042258Y0040718D01*
X0047176Y0035800D01*
X0112383Y0035800D01*
X0112383Y0033847D01*
X0112246Y0033984D01*
X0110518Y0034700D01*
X0108648Y0034700D01*
X0106921Y0033984D01*
X0105599Y0032662D01*
X0104883Y0030935D01*
X0104883Y0029065D01*
X0105599Y0027338D01*
X0106921Y0026016D01*
X0108648Y0025300D01*
X0110518Y0025300D01*
X0112246Y0026016D01*
X0112383Y0026153D01*
X0112383Y0024089D01*
X0115075Y0021397D01*
X0114883Y0020935D01*
X0114883Y0019065D01*
X0115599Y0017338D01*
X0116921Y0016016D01*
X0118648Y0015300D01*
X0120518Y0015300D01*
X0122246Y0016016D01*
X0123714Y0017691D02*
X0284085Y0017691D01*
X0284580Y0019290D02*
X0124283Y0019290D01*
X0124283Y0020888D02*
X0284981Y0020888D01*
X0285221Y0022487D02*
X0123640Y0022487D01*
X0122002Y0024085D02*
X0285283Y0024085D01*
X0285283Y0025684D02*
X0121914Y0025684D01*
X0123513Y0027282D02*
X0285283Y0027282D01*
X0285283Y0028881D02*
X0124283Y0028881D01*
X0124283Y0030479D02*
X0285283Y0030479D01*
X0285283Y0032078D02*
X0124152Y0032078D01*
X0122554Y0033676D02*
X0195890Y0033676D01*
X0195971Y0033629D02*
X0196328Y0033534D01*
X0199828Y0033534D01*
X0199828Y0038249D01*
X0199828Y0038250D02*
X0195112Y0038250D01*
X0195112Y0034749D01*
X0195207Y0034393D01*
X0195392Y0034074D01*
X0195652Y0033814D01*
X0195971Y0033629D01*
X0195112Y0035275D02*
X0116783Y0035275D01*
X0112383Y0035275D02*
X0024883Y0035275D01*
X0024883Y0036873D02*
X0046103Y0036873D01*
X0044504Y0038472D02*
X0024883Y0038472D01*
X0024883Y0040070D02*
X0034598Y0040070D01*
X0031832Y0041669D02*
X0024883Y0041669D01*
X0024883Y0043268D02*
X0030233Y0043268D01*
X0029494Y0044866D02*
X0024883Y0044866D01*
X0024883Y0046465D02*
X0028832Y0046465D01*
X0028746Y0048063D02*
X0024883Y0048063D01*
X0024883Y0049662D02*
X0028746Y0049662D01*
X0029181Y0051260D02*
X0024883Y0051260D01*
X0024883Y0052859D02*
X0029843Y0052859D01*
X0031076Y0054457D02*
X0024883Y0054457D01*
X0024883Y0056056D02*
X0032773Y0056056D01*
X0035383Y0057654D02*
X0024883Y0057654D01*
X0024883Y0059253D02*
X0035383Y0059253D01*
X0035383Y0060851D02*
X0024883Y0060851D01*
X0024883Y0062450D02*
X0035383Y0062450D01*
X0035383Y0064048D02*
X0024883Y0064048D01*
X0024883Y0065647D02*
X0035383Y0065647D01*
X0035383Y0067245D02*
X0024883Y0067245D01*
X0024883Y0068844D02*
X0035383Y0068844D01*
X0035383Y0070442D02*
X0024883Y0070442D01*
X0024883Y0072041D02*
X0035383Y0072041D01*
X0035383Y0073639D02*
X0024883Y0073639D01*
X0024883Y0075238D02*
X0035383Y0075238D01*
X0035383Y0076836D02*
X0024883Y0076836D01*
X0024883Y0078435D02*
X0036907Y0078435D01*
X0038505Y0080033D02*
X0024883Y0080033D01*
X0024883Y0081632D02*
X0040104Y0081632D01*
X0042583Y0081000D02*
X0055083Y0081000D01*
X0071583Y0081000D01*
X0074083Y0078500D01*
X0074083Y0075000D01*
X0074083Y0059500D01*
X0074583Y0059500D01*
X0071433Y0059253D02*
X0059447Y0059253D01*
X0059783Y0060065D02*
X0059068Y0058338D01*
X0057746Y0057016D01*
X0056018Y0056300D01*
X0054148Y0056300D01*
X0052421Y0057016D01*
X0051099Y0058338D01*
X0050383Y0060065D01*
X0050383Y0061935D01*
X0051099Y0063662D01*
X0052421Y0064984D01*
X0054148Y0065700D01*
X0056018Y0065700D01*
X0057746Y0064984D01*
X0059068Y0063662D01*
X0059783Y0061935D01*
X0059783Y0060065D01*
X0059783Y0060851D02*
X0071433Y0060851D01*
X0071883Y0062450D02*
X0059570Y0062450D01*
X0058682Y0064048D02*
X0071883Y0064048D01*
X0071883Y0065647D02*
X0056147Y0065647D01*
X0056018Y0066300D02*
X0054148Y0066300D01*
X0052421Y0067016D01*
X0051099Y0068338D01*
X0050383Y0070065D01*
X0050383Y0071935D01*
X0051099Y0073662D01*
X0052421Y0074984D01*
X0054148Y0075700D01*
X0056018Y0075700D01*
X0057746Y0074984D01*
X0059068Y0073662D01*
X0059783Y0071935D01*
X0059783Y0070065D01*
X0059068Y0068338D01*
X0057746Y0067016D01*
X0056018Y0066300D01*
X0054020Y0065647D02*
X0039783Y0065647D01*
X0039783Y0067245D02*
X0052191Y0067245D01*
X0050889Y0068844D02*
X0039783Y0068844D01*
X0039783Y0070442D02*
X0050383Y0070442D01*
X0050427Y0072041D02*
X0039783Y0072041D01*
X0039783Y0073639D02*
X0051089Y0073639D01*
X0053032Y0075238D02*
X0039932Y0075238D01*
X0041531Y0076836D02*
X0052854Y0076836D01*
X0051059Y0078435D02*
X0043129Y0078435D01*
X0042583Y0081000D02*
X0037583Y0076000D01*
X0037583Y0048441D01*
X0037646Y0048441D01*
X0048087Y0038000D01*
X0108583Y0038000D01*
X0108583Y0044100D01*
X0108509Y0044100D01*
X0105359Y0044866D02*
X0105359Y0044866D01*
X0105359Y0043268D02*
X0105359Y0043268D01*
X0105359Y0041669D02*
X0105359Y0041669D01*
X0106383Y0040200D02*
X0106383Y0040200D01*
X0108583Y0038000D02*
X0114583Y0038000D01*
X0114583Y0025000D01*
X0119583Y0020000D01*
X0114883Y0019290D02*
X0114283Y0019290D01*
X0114283Y0019065D02*
X0113568Y0017338D01*
X0112246Y0016016D01*
X0110518Y0015300D01*
X0108648Y0015300D01*
X0106921Y0016016D01*
X0105599Y0017338D01*
X0104883Y0019065D01*
X0104883Y0020935D01*
X0105599Y0022662D01*
X0106921Y0023984D01*
X0108648Y0024700D01*
X0110518Y0024700D01*
X0112246Y0023984D01*
X0113568Y0022662D01*
X0114283Y0020935D01*
X0114283Y0019065D01*
X0113714Y0017691D02*
X0115452Y0017691D01*
X0116844Y0016093D02*
X0112323Y0016093D01*
X0114283Y0020888D02*
X0114883Y0020888D01*
X0113985Y0022487D02*
X0113640Y0022487D01*
X0112387Y0024085D02*
X0112002Y0024085D01*
X0112383Y0025684D02*
X0111445Y0025684D01*
X0107722Y0025684D02*
X0101445Y0025684D01*
X0102246Y0026016D02*
X0103568Y0027338D01*
X0104283Y0029065D01*
X0104283Y0030935D01*
X0103568Y0032662D01*
X0102246Y0033984D01*
X0100518Y0034700D01*
X0098648Y0034700D01*
X0096921Y0033984D01*
X0095599Y0032662D01*
X0094883Y0030935D01*
X0094883Y0029065D01*
X0095599Y0027338D01*
X0096921Y0026016D01*
X0098648Y0025300D01*
X0100518Y0025300D01*
X0102246Y0026016D01*
X0103513Y0027282D02*
X0105654Y0027282D01*
X0104960Y0028881D02*
X0104207Y0028881D01*
X0104283Y0030479D02*
X0104883Y0030479D01*
X0105357Y0032078D02*
X0103810Y0032078D01*
X0102554Y0033676D02*
X0106613Y0033676D01*
X0114583Y0038000D02*
X0114808Y0038224D01*
X0114808Y0044100D01*
X0114808Y0070224D01*
X0117957Y0073374D01*
X0117957Y0077900D01*
X0117957Y0089126D01*
X0115083Y0092000D01*
X0111583Y0092000D01*
X0111583Y0098500D01*
X0105583Y0098500D01*
X0102433Y0099215D02*
X0081733Y0099215D01*
X0081733Y0097617D02*
X0102433Y0097617D01*
X0102841Y0096018D02*
X0081612Y0096018D01*
X0080783Y0094420D02*
X0102788Y0094420D01*
X0102800Y0094441D02*
X0102559Y0094022D01*
X0102433Y0093554D01*
X0102433Y0092075D01*
X0105508Y0092075D01*
X0105508Y0095150D01*
X0104029Y0095150D01*
X0103562Y0095025D01*
X0103143Y0094783D01*
X0102800Y0094441D01*
X0102433Y0092821D02*
X0080783Y0092821D01*
X0080783Y0091223D02*
X0102433Y0091223D01*
X0102763Y0089624D02*
X0080783Y0089624D01*
X0078583Y0088500D02*
X0078583Y0098000D01*
X0075433Y0097617D02*
X0058347Y0097617D01*
X0057030Y0096300D02*
X0055268Y0096300D01*
X0055268Y0100816D01*
X0055268Y0101184D01*
X0059783Y0101184D01*
X0059783Y0102947D01*
X0057030Y0105700D01*
X0055268Y0105700D01*
X0055268Y0101184D01*
X0054899Y0101184D01*
X0054899Y0100816D01*
X0050383Y0100816D01*
X0050383Y0099053D01*
X0053137Y0096300D01*
X0054899Y0096300D01*
X0054899Y0100816D01*
X0055268Y0100816D01*
X0059783Y0100816D01*
X0059783Y0099053D01*
X0057030Y0096300D01*
X0056887Y0095356D02*
X0056184Y0095584D01*
X0055453Y0095700D01*
X0055268Y0095700D01*
X0055268Y0091184D01*
X0059783Y0091184D01*
X0059783Y0091370D01*
X0059668Y0092101D01*
X0059439Y0092804D01*
X0059103Y0093463D01*
X0058668Y0094062D01*
X0058145Y0094585D01*
X0057547Y0095020D01*
X0056887Y0095356D01*
X0058310Y0094420D02*
X0076383Y0094420D01*
X0076383Y0092821D02*
X0059430Y0092821D01*
X0059783Y0091223D02*
X0076383Y0091223D01*
X0076383Y0089624D02*
X0059578Y0089624D01*
X0059668Y0089899D02*
X0059783Y0090630D01*
X0059783Y0090816D01*
X0055268Y0090816D01*
X0055268Y0091184D01*
X0054899Y0091184D01*
X0054899Y0090816D01*
X0050383Y0090816D01*
X0050383Y0090630D01*
X0050499Y0089899D01*
X0050728Y0089196D01*
X0051064Y0088537D01*
X0051498Y0087938D01*
X0052021Y0087415D01*
X0052620Y0086980D01*
X0053279Y0086644D01*
X0053983Y0086416D01*
X0054713Y0086300D01*
X0054899Y0086300D01*
X0054899Y0090816D01*
X0055268Y0090816D01*
X0055268Y0086300D01*
X0055453Y0086300D01*
X0056184Y0086416D01*
X0056887Y0086644D01*
X0057547Y0086980D01*
X0058145Y0087415D01*
X0058668Y0087938D01*
X0059103Y0088537D01*
X0059439Y0089196D01*
X0059668Y0089899D01*
X0058732Y0088026D02*
X0076383Y0088026D01*
X0077545Y0086427D02*
X0056220Y0086427D01*
X0055268Y0086427D02*
X0054899Y0086427D01*
X0053947Y0086427D02*
X0024883Y0086427D01*
X0024883Y0084829D02*
X0052265Y0084829D01*
X0050920Y0083230D02*
X0024883Y0083230D01*
X0024883Y0088026D02*
X0051435Y0088026D01*
X0050588Y0089624D02*
X0024883Y0089624D01*
X0024883Y0091223D02*
X0050383Y0091223D01*
X0050383Y0091184D02*
X0054899Y0091184D01*
X0054899Y0095700D01*
X0054713Y0095700D01*
X0053983Y0095584D01*
X0053279Y0095356D01*
X0052620Y0095020D01*
X0052021Y0094585D01*
X0051498Y0094062D01*
X0051064Y0093463D01*
X0050728Y0092804D01*
X0050499Y0092101D01*
X0050383Y0091370D01*
X0050383Y0091184D01*
X0050736Y0092821D02*
X0024883Y0092821D01*
X0024883Y0094420D02*
X0051856Y0094420D01*
X0054899Y0094420D02*
X0055268Y0094420D01*
X0055268Y0092821D02*
X0054899Y0092821D01*
X0054899Y0091223D02*
X0055268Y0091223D01*
X0055268Y0089624D02*
X0054899Y0089624D01*
X0054899Y0088026D02*
X0055268Y0088026D01*
X0057901Y0084829D02*
X0079143Y0084829D01*
X0081083Y0086000D02*
X0078583Y0088500D01*
X0081083Y0086000D02*
X0087583Y0086000D01*
X0085129Y0083230D02*
X0059247Y0083230D01*
X0059108Y0078435D02*
X0071037Y0078435D01*
X0070683Y0076836D02*
X0057313Y0076836D01*
X0057134Y0075238D02*
X0070683Y0075238D01*
X0070683Y0073639D02*
X0059077Y0073639D01*
X0059739Y0072041D02*
X0070813Y0072041D01*
X0071883Y0070442D02*
X0059783Y0070442D01*
X0059277Y0068844D02*
X0071883Y0068844D01*
X0071883Y0067245D02*
X0057975Y0067245D01*
X0051485Y0064048D02*
X0039783Y0064048D01*
X0039783Y0062450D02*
X0050597Y0062450D01*
X0050383Y0060851D02*
X0039783Y0060851D01*
X0039783Y0059253D02*
X0050720Y0059253D01*
X0051782Y0057654D02*
X0039783Y0057654D01*
X0042520Y0056056D02*
X0078383Y0056056D01*
X0078383Y0054457D02*
X0058273Y0054457D01*
X0058384Y0057654D02*
X0071433Y0057654D01*
X0076657Y0062650D02*
X0077583Y0061724D01*
X0078510Y0062650D01*
X0082657Y0062650D01*
X0083607Y0061700D01*
X0084535Y0061700D01*
X0084969Y0062747D01*
X0085836Y0063615D01*
X0086970Y0064084D01*
X0088197Y0064084D01*
X0089283Y0063634D01*
X0089283Y0066674D01*
X0085121Y0066674D01*
X0083298Y0066674D01*
X0080983Y0068989D01*
X0080983Y0067200D01*
X0077783Y0067200D01*
X0077783Y0066800D01*
X0077783Y0063350D01*
X0079768Y0063350D01*
X0080124Y0063445D01*
X0080443Y0063630D01*
X0080704Y0063890D01*
X0080888Y0064210D01*
X0080983Y0064566D01*
X0080983Y0066800D01*
X0077783Y0066800D01*
X0077383Y0066800D01*
X0077383Y0063350D01*
X0076283Y0063350D01*
X0076283Y0062650D01*
X0076657Y0062650D01*
X0076857Y0062450D02*
X0078309Y0062450D01*
X0077783Y0064048D02*
X0077383Y0064048D01*
X0077383Y0065647D02*
X0077783Y0065647D01*
X0077783Y0067245D02*
X0077383Y0067245D01*
X0077383Y0068844D02*
X0077783Y0068844D01*
X0077783Y0070442D02*
X0077383Y0070442D01*
X0077354Y0072041D02*
X0077813Y0072041D01*
X0077683Y0073639D02*
X0077483Y0073639D01*
X0077483Y0075238D02*
X0077683Y0075238D01*
X0077683Y0076836D02*
X0077483Y0076836D01*
X0076878Y0078435D02*
X0078288Y0078435D01*
X0075661Y0080033D02*
X0091383Y0080033D01*
X0091383Y0078435D02*
X0083878Y0078435D01*
X0084483Y0076836D02*
X0091383Y0076836D01*
X0091383Y0075238D02*
X0084483Y0075238D01*
X0084483Y0073639D02*
X0089283Y0073639D01*
X0089283Y0072041D02*
X0084354Y0072041D01*
X0084209Y0068874D02*
X0081083Y0072000D01*
X0081083Y0075000D01*
X0080983Y0068844D02*
X0081128Y0068844D01*
X0080983Y0067245D02*
X0082727Y0067245D01*
X0084209Y0068874D02*
X0093183Y0068874D01*
X0093183Y0065724D02*
X0104308Y0065724D01*
X0105583Y0067000D01*
X0105583Y0067500D01*
X0102802Y0068844D02*
X0097083Y0068844D01*
X0097083Y0070442D02*
X0104627Y0070442D01*
X0106540Y0070442D02*
X0112608Y0070442D01*
X0112608Y0068844D02*
X0108365Y0068844D01*
X0108668Y0067245D02*
X0112608Y0067245D01*
X0112608Y0065647D02*
X0108092Y0065647D01*
X0105743Y0064048D02*
X0112608Y0064048D01*
X0112608Y0062450D02*
X0102168Y0062450D01*
X0101946Y0060851D02*
X0112608Y0060851D01*
X0112608Y0059253D02*
X0100510Y0059253D01*
X0097657Y0059253D02*
X0097083Y0059253D01*
X0097083Y0057654D02*
X0112608Y0057654D01*
X0112608Y0056056D02*
X0109390Y0056056D01*
X0110525Y0054457D02*
X0112608Y0054457D01*
X0112608Y0052859D02*
X0110656Y0052859D01*
X0109705Y0051260D02*
X0112608Y0051260D01*
X0112608Y0049662D02*
X0106856Y0049662D01*
X0105258Y0048063D02*
X0112608Y0048063D01*
X0111658Y0048000D02*
X0111658Y0044100D01*
X0111658Y0048000D01*
X0111658Y0046465D02*
X0111658Y0046465D01*
X0111658Y0044866D02*
X0111658Y0044866D01*
X0111658Y0044100D02*
X0111658Y0044100D01*
X0111658Y0044100D01*
X0111658Y0040200D01*
X0110783Y0040200D01*
X0110783Y0040200D01*
X0112608Y0040200D01*
X0112608Y0040200D01*
X0111658Y0040200D01*
X0111658Y0044100D01*
X0111658Y0043268D02*
X0111658Y0043268D01*
X0111658Y0041669D02*
X0111658Y0041669D01*
X0117008Y0040200D02*
X0122787Y0040200D01*
X0123607Y0041020D01*
X0123607Y0047180D01*
X0122787Y0048000D01*
X0117008Y0048000D01*
X0117008Y0069313D01*
X0120157Y0072463D01*
X0120157Y0074000D01*
X0122787Y0074000D01*
X0123607Y0074820D01*
X0123607Y0080980D01*
X0123283Y0081304D01*
X0123283Y0081338D01*
X0123698Y0081753D01*
X0124168Y0082886D01*
X0124168Y0084113D01*
X0123698Y0085247D01*
X0122830Y0086115D01*
X0121697Y0086584D01*
X0120470Y0086584D01*
X0120157Y0086455D01*
X0120157Y0090037D01*
X0117283Y0092911D01*
X0115995Y0094200D01*
X0114607Y0094200D01*
X0113783Y0095024D01*
X0113783Y0095476D01*
X0114733Y0096426D01*
X0114733Y0100574D01*
X0113807Y0101500D01*
X0114733Y0102426D01*
X0114733Y0106574D01*
X0113783Y0107524D01*
X0113783Y0114089D01*
X0115458Y0115763D01*
X0115836Y0115385D01*
X0116970Y0114916D01*
X0118197Y0114916D01*
X0119330Y0115385D01*
X0119745Y0115800D01*
X0129812Y0115800D01*
X0130275Y0113474D01*
X0132220Y0108779D01*
X0135043Y0104553D01*
X0138637Y0100960D01*
X0142862Y0098136D01*
X0147558Y0096191D01*
X0152542Y0095200D01*
X0157624Y0095200D01*
X0162609Y0096191D01*
X0167304Y0098136D01*
X0171530Y0100960D01*
X0175123Y0104553D01*
X0177947Y0108779D01*
X0179892Y0113474D01*
X0180883Y0118459D01*
X0180883Y0122300D01*
X0221172Y0122300D01*
X0222883Y0120589D01*
X0222883Y0101424D01*
X0222657Y0101650D01*
X0218510Y0101650D01*
X0217583Y0100724D01*
X0216657Y0101650D01*
X0212510Y0101650D01*
X0211902Y0101043D01*
X0211830Y0101115D01*
X0210697Y0101584D01*
X0209470Y0101584D01*
X0208336Y0101115D01*
X0207469Y0100247D01*
X0206999Y0099113D01*
X0206999Y0097886D01*
X0207469Y0096753D01*
X0208336Y0095885D01*
X0209470Y0095416D01*
X0210697Y0095416D01*
X0211830Y0095885D01*
X0211902Y0095957D01*
X0212510Y0095350D01*
X0216657Y0095350D01*
X0217583Y0096276D01*
X0218510Y0095350D01*
X0222657Y0095350D01*
X0222883Y0095576D01*
X0222883Y0093830D01*
X0222583Y0093530D01*
X0222443Y0093670D01*
X0222124Y0093855D01*
X0221768Y0093950D01*
X0220083Y0093950D01*
X0218399Y0093950D01*
X0218043Y0093855D01*
X0217724Y0093670D01*
X0217463Y0093410D01*
X0217279Y0093090D01*
X0217183Y0092734D01*
X0217183Y0090300D01*
X0217183Y0087866D01*
X0217279Y0087510D01*
X0217463Y0087190D01*
X0217724Y0086930D01*
X0218043Y0086745D01*
X0218399Y0086650D01*
X0220083Y0086650D01*
X0220083Y0090300D01*
X0220083Y0090300D01*
X0217183Y0090300D01*
X0220083Y0090300D01*
X0220083Y0090300D01*
X0220083Y0093950D01*
X0220083Y0090300D01*
X0220083Y0090300D01*
X0220083Y0086650D01*
X0221768Y0086650D01*
X0222124Y0086745D01*
X0222443Y0086930D01*
X0222583Y0087070D01*
X0222883Y0086770D01*
X0222883Y0085700D01*
X0215607Y0085700D01*
X0214749Y0086558D01*
X0215024Y0086717D01*
X0215366Y0087059D01*
X0215608Y0087478D01*
X0215733Y0087946D01*
X0215733Y0089425D01*
X0212658Y0089425D01*
X0212658Y0089575D01*
X0212508Y0089575D01*
X0212508Y0089425D01*
X0209433Y0089425D01*
X0209433Y0087946D01*
X0209559Y0087478D01*
X0209800Y0087059D01*
X0210143Y0086717D01*
X0210418Y0086558D01*
X0209433Y0085574D01*
X0209433Y0081426D01*
X0210510Y0080350D01*
X0214657Y0080350D01*
X0215607Y0081300D01*
X0224172Y0081300D01*
X0227883Y0077589D01*
X0227883Y0075230D01*
X0227583Y0074930D01*
X0227163Y0075350D01*
X0225845Y0075350D01*
X0224283Y0076911D01*
X0222995Y0078200D01*
X0199245Y0078200D01*
X0198830Y0078615D01*
X0197697Y0079084D01*
X0196470Y0079084D01*
X0195336Y0078615D01*
X0194469Y0077747D01*
X0193999Y0076613D01*
X0193999Y0075386D01*
X0194469Y0074253D01*
X0195336Y0073385D01*
X0196470Y0072916D01*
X0197697Y0072916D01*
X0198830Y0073385D01*
X0199245Y0073800D01*
X0217183Y0073800D01*
X0217183Y0069700D01*
X0195672Y0069700D01*
X0194383Y0068411D01*
X0186672Y0060700D01*
X0143495Y0060700D01*
X0134409Y0069785D01*
X0134409Y0069785D01*
X0133121Y0071074D01*
X0130883Y0071074D01*
X0130883Y0073704D01*
X0130063Y0074524D01*
X0129783Y0074524D01*
X0129783Y0075838D01*
X0130198Y0076253D01*
X0130668Y0077386D01*
X0130668Y0078613D01*
X0130198Y0079747D01*
X0129330Y0080615D01*
X0128197Y0081084D01*
X0126970Y0081084D01*
X0125836Y0080615D01*
X0124969Y0079747D01*
X0124499Y0078613D01*
X0124499Y0077386D01*
X0124969Y0076253D01*
X0125383Y0075838D01*
X0125383Y0074524D01*
X0123903Y0074524D01*
X0123083Y0073704D01*
X0123083Y0071362D01*
X0122830Y0071615D01*
X0121697Y0072084D01*
X0120470Y0072084D01*
X0119336Y0071615D01*
X0118469Y0070747D01*
X0117999Y0069613D01*
X0117999Y0068386D01*
X0118469Y0067253D01*
X0119336Y0066385D01*
X0120470Y0065916D01*
X0121697Y0065916D01*
X0122830Y0066385D01*
X0123083Y0066638D01*
X0123083Y0048296D01*
X0123903Y0047476D01*
X0130063Y0047476D01*
X0130883Y0048296D01*
X0130883Y0056589D01*
X0137722Y0049750D01*
X0128172Y0040200D01*
X0117008Y0040200D01*
X0117008Y0040200D01*
X0114583Y0038000D02*
X0129083Y0038000D01*
X0139583Y0048500D01*
X0182083Y0048500D01*
X0185083Y0045500D01*
X0197083Y0045500D01*
X0200012Y0048429D01*
X0200012Y0048434D01*
X0199828Y0043268D02*
X0200196Y0043268D01*
X0200196Y0041669D02*
X0199828Y0041669D01*
X0199828Y0040070D02*
X0200196Y0040070D01*
X0200196Y0038472D02*
X0205112Y0038472D01*
X0205112Y0040070D02*
X0204912Y0040070D01*
X0199828Y0038472D02*
X0188233Y0038472D01*
X0188233Y0040070D02*
X0195112Y0040070D01*
X0195112Y0041669D02*
X0188023Y0041669D01*
X0188074Y0043268D02*
X0196080Y0043268D01*
X0205083Y0043362D02*
X0205083Y0057000D01*
X0201583Y0060500D01*
X0196583Y0060500D01*
X0189583Y0053500D01*
X0140583Y0053500D01*
X0131509Y0062575D01*
X0126983Y0062575D01*
X0126983Y0065724D02*
X0131859Y0065724D01*
X0141583Y0056000D01*
X0188583Y0056000D01*
X0196583Y0064000D01*
X0210083Y0064000D01*
X0210083Y0048434D01*
X0210012Y0048434D01*
X0214115Y0051260D02*
X0215909Y0051260D01*
X0215112Y0049662D02*
X0214912Y0049662D01*
X0214912Y0048063D02*
X0215112Y0048063D01*
X0215112Y0046465D02*
X0214912Y0046465D01*
X0213374Y0044866D02*
X0216650Y0044866D01*
X0217916Y0043268D02*
X0212108Y0043268D01*
X0213706Y0041669D02*
X0216317Y0041669D01*
X0215112Y0040070D02*
X0214912Y0040070D01*
X0214912Y0038472D02*
X0215112Y0038472D01*
X0215112Y0036873D02*
X0214912Y0036873D01*
X0213783Y0035275D02*
X0216241Y0035275D01*
X0217840Y0033676D02*
X0212184Y0033676D01*
X0207840Y0033676D02*
X0204134Y0033676D01*
X0204912Y0035275D02*
X0206241Y0035275D01*
X0205112Y0036873D02*
X0204912Y0036873D01*
X0200196Y0036873D02*
X0199828Y0036873D01*
X0199828Y0035275D02*
X0200196Y0035275D01*
X0200196Y0033676D02*
X0199828Y0033676D01*
X0195112Y0036873D02*
X0187680Y0036873D01*
X0185158Y0036873D02*
X0185008Y0036873D01*
X0185008Y0038472D02*
X0185158Y0038472D01*
X0182486Y0036873D02*
X0131068Y0036873D01*
X0132667Y0038472D02*
X0181933Y0038472D01*
X0181933Y0040070D02*
X0134265Y0040070D01*
X0135864Y0041669D02*
X0182144Y0041669D01*
X0182092Y0043268D02*
X0137462Y0043268D01*
X0139061Y0044866D02*
X0181933Y0044866D01*
X0192083Y0051000D02*
X0198083Y0057000D01*
X0192083Y0051000D02*
X0139583Y0051000D01*
X0131158Y0059425D01*
X0126983Y0059425D01*
X0123083Y0059253D02*
X0117008Y0059253D01*
X0117008Y0060851D02*
X0123083Y0060851D01*
X0123083Y0062450D02*
X0117008Y0062450D01*
X0117008Y0064048D02*
X0123083Y0064048D01*
X0123083Y0065647D02*
X0117008Y0065647D01*
X0117008Y0067245D02*
X0118476Y0067245D01*
X0117999Y0068844D02*
X0117008Y0068844D01*
X0118137Y0070442D02*
X0118342Y0070442D01*
X0119735Y0072041D02*
X0120365Y0072041D01*
X0121802Y0072041D02*
X0123083Y0072041D01*
X0123083Y0073639D02*
X0120157Y0073639D01*
X0115111Y0073639D02*
X0097083Y0073639D01*
X0097380Y0074000D02*
X0107039Y0074000D01*
X0107078Y0074039D01*
X0107224Y0074000D01*
X0108508Y0074000D01*
X0108508Y0077900D01*
X0108509Y0077900D01*
X0108508Y0077900D01*
X0108508Y0081800D01*
X0107224Y0081800D01*
X0107078Y0081761D01*
X0107039Y0081800D01*
X0097380Y0081800D01*
X0096560Y0080980D01*
X0096560Y0074820D01*
X0097380Y0074000D01*
X0096560Y0075238D02*
X0095783Y0075238D01*
X0095783Y0076836D02*
X0096560Y0076836D01*
X0096560Y0078435D02*
X0095783Y0078435D01*
X0095783Y0080033D02*
X0096560Y0080033D01*
X0097212Y0081632D02*
X0095783Y0081632D01*
X0096037Y0083230D02*
X0103129Y0083230D01*
X0102433Y0084829D02*
X0096733Y0084829D01*
X0096733Y0086427D02*
X0102433Y0086427D01*
X0102561Y0088026D02*
X0096733Y0088026D01*
X0093583Y0086000D02*
X0093583Y0072424D01*
X0093183Y0072024D01*
X0097083Y0072041D02*
X0113513Y0072041D01*
X0108508Y0075238D02*
X0108509Y0075238D01*
X0108508Y0076836D02*
X0108509Y0076836D01*
X0108508Y0078435D02*
X0108509Y0078435D01*
X0108508Y0080033D02*
X0108509Y0080033D01*
X0108508Y0081632D02*
X0108509Y0081632D01*
X0108037Y0083230D02*
X0109129Y0083230D01*
X0105658Y0083230D02*
X0105508Y0083230D01*
X0105508Y0084829D02*
X0105658Y0084829D01*
X0105658Y0086075D02*
X0105508Y0086075D01*
X0105508Y0091925D01*
X0105658Y0091925D01*
X0105658Y0089150D01*
X0105658Y0086075D01*
X0105658Y0086427D02*
X0105508Y0086427D01*
X0105508Y0088026D02*
X0105658Y0088026D01*
X0105658Y0089624D02*
X0105508Y0089624D01*
X0105508Y0091223D02*
X0105658Y0091223D01*
X0105658Y0092821D02*
X0105508Y0092821D01*
X0105508Y0094420D02*
X0105658Y0094420D01*
X0108378Y0094420D02*
X0108780Y0094420D01*
X0108841Y0096018D02*
X0108325Y0096018D01*
X0114325Y0096018D02*
X0148428Y0096018D01*
X0144116Y0097617D02*
X0114733Y0097617D01*
X0114733Y0099215D02*
X0141247Y0099215D01*
X0138855Y0100814D02*
X0114493Y0100814D01*
X0114719Y0102412D02*
X0137184Y0102412D01*
X0135586Y0104011D02*
X0114733Y0104011D01*
X0114733Y0105609D02*
X0134338Y0105609D01*
X0133269Y0107208D02*
X0114099Y0107208D01*
X0113783Y0108806D02*
X0132208Y0108806D01*
X0131546Y0110405D02*
X0113783Y0110405D01*
X0113783Y0112003D02*
X0130884Y0112003D01*
X0130249Y0113602D02*
X0113783Y0113602D01*
X0114895Y0115201D02*
X0116282Y0115201D01*
X0118884Y0115201D02*
X0129931Y0115201D01*
X0117583Y0118000D02*
X0114583Y0118000D01*
X0111583Y0115000D01*
X0111583Y0104500D01*
X0105583Y0104500D02*
X0105583Y0121500D01*
X0108083Y0124000D01*
X0117583Y0124000D01*
X0143083Y0124000D01*
X0145792Y0126709D01*
X0148646Y0126709D01*
X0152583Y0126709D02*
X0152583Y0128500D01*
X0155083Y0131000D01*
X0160083Y0131000D01*
X0162583Y0128500D01*
X0162583Y0124500D01*
X0222083Y0124500D01*
X0225083Y0121500D01*
X0225083Y0098500D01*
X0225083Y0090300D01*
X0225083Y0083500D01*
X0212583Y0083500D01*
X0209433Y0083230D02*
X0158956Y0083230D01*
X0159617Y0082956D02*
X0156601Y0084205D01*
X0153337Y0084205D01*
X0150321Y0082956D01*
X0148013Y0080648D01*
X0146764Y0077632D01*
X0146764Y0074368D01*
X0148013Y0071352D01*
X0150321Y0069044D01*
X0153337Y0067794D01*
X0156601Y0067794D01*
X0159617Y0069044D01*
X0161925Y0071352D01*
X0163175Y0074368D01*
X0163175Y0077632D01*
X0161925Y0080648D01*
X0159617Y0082956D01*
X0160942Y0081632D02*
X0209433Y0081632D01*
X0209433Y0084829D02*
X0123871Y0084829D01*
X0124168Y0083230D02*
X0150983Y0083230D01*
X0148997Y0081632D02*
X0123577Y0081632D01*
X0123607Y0080033D02*
X0125255Y0080033D01*
X0124499Y0078435D02*
X0123607Y0078435D01*
X0123607Y0076836D02*
X0124727Y0076836D01*
X0125383Y0075238D02*
X0123607Y0075238D01*
X0121107Y0077900D02*
X0121083Y0077924D01*
X0121083Y0083500D01*
X0122076Y0086427D02*
X0210287Y0086427D01*
X0209433Y0088026D02*
X0120157Y0088026D01*
X0120157Y0089624D02*
X0209433Y0089624D01*
X0209433Y0089575D02*
X0212508Y0089575D01*
X0212508Y0092650D01*
X0211029Y0092650D01*
X0210562Y0092525D01*
X0210143Y0092283D01*
X0209800Y0091941D01*
X0209559Y0091522D01*
X0209433Y0091054D01*
X0209433Y0089575D01*
X0209478Y0091223D02*
X0118972Y0091223D01*
X0117373Y0092821D02*
X0217207Y0092821D01*
X0217183Y0091223D02*
X0215688Y0091223D01*
X0215733Y0091054D02*
X0215608Y0091522D01*
X0215366Y0091941D01*
X0215024Y0092283D01*
X0214605Y0092525D01*
X0214138Y0092650D01*
X0212658Y0092650D01*
X0212658Y0089575D01*
X0215733Y0089575D01*
X0215733Y0091054D01*
X0215733Y0089624D02*
X0217183Y0089624D01*
X0217183Y0088026D02*
X0215733Y0088026D01*
X0214880Y0086427D02*
X0222883Y0086427D01*
X0220083Y0088026D02*
X0220083Y0088026D01*
X0220083Y0089624D02*
X0220083Y0089624D01*
X0220083Y0091223D02*
X0220083Y0091223D01*
X0220083Y0092821D02*
X0220083Y0092821D01*
X0222883Y0094420D02*
X0114387Y0094420D01*
X0111583Y0086000D02*
X0111583Y0077975D01*
X0111658Y0077900D01*
X0121083Y0069000D02*
X0121209Y0068874D01*
X0126983Y0068874D01*
X0132209Y0068874D01*
X0142583Y0058500D01*
X0187583Y0058500D01*
X0196583Y0067500D01*
X0220083Y0067500D01*
X0220083Y0071700D01*
X0217183Y0072041D02*
X0162211Y0072041D01*
X0162873Y0073639D02*
X0195082Y0073639D01*
X0194061Y0075238D02*
X0163175Y0075238D01*
X0163175Y0076836D02*
X0194091Y0076836D01*
X0195156Y0078435D02*
X0162842Y0078435D01*
X0162180Y0080033D02*
X0225439Y0080033D01*
X0227037Y0078435D02*
X0199010Y0078435D01*
X0197083Y0076000D02*
X0222083Y0076000D01*
X0225083Y0073000D01*
X0225083Y0071700D01*
X0225083Y0044000D01*
X0220012Y0038929D01*
X0220012Y0038434D01*
X0224912Y0038472D02*
X0225112Y0038472D01*
X0225112Y0040070D02*
X0224912Y0040070D01*
X0225864Y0041669D02*
X0226317Y0041669D01*
X0227283Y0043268D02*
X0227916Y0043268D01*
X0230078Y0038500D02*
X0230012Y0038434D01*
X0230078Y0038500D02*
X0236583Y0038500D01*
X0238583Y0040500D01*
X0238583Y0075000D01*
X0230083Y0083500D01*
X0230083Y0090300D01*
X0235083Y0090300D02*
X0235083Y0098500D01*
X0238233Y0099215D02*
X0285283Y0099215D01*
X0285283Y0097617D02*
X0238233Y0097617D01*
X0237825Y0096018D02*
X0285283Y0096018D01*
X0285283Y0094420D02*
X0237283Y0094420D01*
X0237983Y0092821D02*
X0285283Y0092821D01*
X0285283Y0091223D02*
X0237983Y0091223D01*
X0237983Y0089624D02*
X0285283Y0089624D01*
X0285283Y0088026D02*
X0237983Y0088026D01*
X0237283Y0086427D02*
X0285283Y0086427D01*
X0285283Y0084829D02*
X0237871Y0084829D01*
X0238168Y0083230D02*
X0285283Y0083230D01*
X0285283Y0081632D02*
X0237577Y0081632D01*
X0236661Y0080033D02*
X0285283Y0080033D01*
X0285283Y0078435D02*
X0238260Y0078435D01*
X0239858Y0076836D02*
X0285283Y0076836D01*
X0285283Y0075238D02*
X0240783Y0075238D01*
X0240783Y0073639D02*
X0285283Y0073639D01*
X0285283Y0072041D02*
X0240783Y0072041D01*
X0240783Y0070442D02*
X0285283Y0070442D01*
X0285283Y0068844D02*
X0240783Y0068844D01*
X0240783Y0067245D02*
X0285283Y0067245D01*
X0285283Y0065647D02*
X0240783Y0065647D01*
X0240783Y0064048D02*
X0285283Y0064048D01*
X0285283Y0062450D02*
X0240783Y0062450D01*
X0240783Y0060851D02*
X0285283Y0060851D01*
X0285283Y0059253D02*
X0240783Y0059253D01*
X0240783Y0057654D02*
X0285283Y0057654D01*
X0285283Y0056056D02*
X0240783Y0056056D01*
X0240783Y0054457D02*
X0285283Y0054457D01*
X0285283Y0052859D02*
X0240783Y0052859D01*
X0240783Y0051260D02*
X0285283Y0051260D01*
X0285283Y0049662D02*
X0240783Y0049662D01*
X0240783Y0048063D02*
X0285283Y0048063D01*
X0285283Y0046465D02*
X0240783Y0046465D01*
X0240783Y0044866D02*
X0285283Y0044866D01*
X0285283Y0043268D02*
X0240783Y0043268D01*
X0240783Y0041669D02*
X0285283Y0041669D01*
X0285283Y0040070D02*
X0240783Y0040070D01*
X0239667Y0038472D02*
X0285283Y0038472D01*
X0285283Y0036873D02*
X0238068Y0036873D01*
X0233783Y0035275D02*
X0285283Y0035275D01*
X0285283Y0033676D02*
X0232184Y0033676D01*
X0227840Y0033676D02*
X0222184Y0033676D01*
X0223783Y0035275D02*
X0226241Y0035275D01*
X0225112Y0036873D02*
X0224912Y0036873D01*
X0235083Y0043500D02*
X0235083Y0071700D01*
X0230083Y0071700D01*
X0230083Y0078500D01*
X0225083Y0083500D01*
X0224358Y0076836D02*
X0227883Y0076836D01*
X0227883Y0075238D02*
X0227275Y0075238D01*
X0217183Y0073639D02*
X0199084Y0073639D01*
X0194816Y0068844D02*
X0159134Y0068844D01*
X0161016Y0070442D02*
X0217183Y0070442D01*
X0220083Y0067500D02*
X0220083Y0048434D01*
X0220012Y0048434D01*
X0217507Y0052859D02*
X0212517Y0052859D01*
X0212283Y0054457D02*
X0217883Y0054457D01*
X0217883Y0056056D02*
X0212283Y0056056D01*
X0212283Y0057654D02*
X0217883Y0057654D01*
X0217883Y0059253D02*
X0212283Y0059253D01*
X0212283Y0060851D02*
X0217883Y0060851D01*
X0217883Y0062450D02*
X0212780Y0062450D01*
X0213168Y0064048D02*
X0217883Y0064048D01*
X0193217Y0067245D02*
X0136949Y0067245D01*
X0135351Y0068844D02*
X0150804Y0068844D01*
X0148923Y0070442D02*
X0133752Y0070442D01*
X0130883Y0072041D02*
X0147728Y0072041D01*
X0147065Y0073639D02*
X0130883Y0073639D01*
X0129783Y0075238D02*
X0146764Y0075238D01*
X0146764Y0076836D02*
X0130440Y0076836D01*
X0130668Y0078435D02*
X0147096Y0078435D01*
X0147758Y0080033D02*
X0129912Y0080033D01*
X0127583Y0078000D02*
X0127583Y0072424D01*
X0126983Y0072024D01*
X0138548Y0065647D02*
X0191619Y0065647D01*
X0190020Y0064048D02*
X0140146Y0064048D01*
X0141745Y0062450D02*
X0188422Y0062450D01*
X0186823Y0060851D02*
X0143343Y0060851D01*
X0133015Y0054457D02*
X0130883Y0054457D01*
X0130883Y0052859D02*
X0134613Y0052859D01*
X0136212Y0051260D02*
X0130883Y0051260D01*
X0130883Y0049662D02*
X0137634Y0049662D01*
X0136035Y0048063D02*
X0130650Y0048063D01*
X0132838Y0044866D02*
X0123607Y0044866D01*
X0123607Y0043268D02*
X0131240Y0043268D01*
X0129641Y0041669D02*
X0123607Y0041669D01*
X0123607Y0046465D02*
X0134437Y0046465D01*
X0123317Y0048063D02*
X0117008Y0048063D01*
X0117008Y0049662D02*
X0123083Y0049662D01*
X0123083Y0051260D02*
X0117008Y0051260D01*
X0117008Y0052859D02*
X0123083Y0052859D01*
X0123083Y0054457D02*
X0117008Y0054457D01*
X0117008Y0056056D02*
X0123083Y0056056D01*
X0123083Y0057654D02*
X0117008Y0057654D01*
X0107583Y0053500D02*
X0104060Y0049976D01*
X0093183Y0049976D01*
X0089517Y0048063D02*
X0088552Y0048063D01*
X0086614Y0048063D02*
X0082870Y0048063D01*
X0083733Y0049662D02*
X0084799Y0049662D01*
X0084499Y0051260D02*
X0083733Y0051260D01*
X0083733Y0052859D02*
X0085080Y0052859D01*
X0084884Y0054457D02*
X0082783Y0054457D01*
X0082783Y0056056D02*
X0084499Y0056056D01*
X0087583Y0056000D02*
X0087859Y0056276D01*
X0093183Y0056276D01*
X0093183Y0059425D02*
X0093109Y0059500D01*
X0087583Y0059500D01*
X0087583Y0061000D01*
X0087583Y0059500D02*
X0080583Y0059500D01*
X0080583Y0051000D01*
X0078297Y0048063D02*
X0076870Y0048063D01*
X0074583Y0051000D02*
X0055083Y0051000D01*
X0050766Y0052859D02*
X0045450Y0052859D01*
X0046112Y0051260D02*
X0050383Y0051260D01*
X0050550Y0049662D02*
X0046546Y0049662D01*
X0046546Y0048063D02*
X0051373Y0048063D01*
X0053751Y0046465D02*
X0046461Y0046465D01*
X0045799Y0044866D02*
X0096560Y0044866D01*
X0096560Y0043268D02*
X0045931Y0043268D01*
X0047530Y0041669D02*
X0096560Y0041669D01*
X0096560Y0046465D02*
X0056415Y0046465D01*
X0058793Y0048063D02*
X0072297Y0048063D01*
X0087583Y0051000D02*
X0089709Y0053126D01*
X0093183Y0053126D01*
X0097083Y0052859D02*
X0103831Y0052859D01*
X0104641Y0054457D02*
X0097083Y0054457D01*
X0097083Y0056056D02*
X0105777Y0056056D01*
X0099083Y0062000D02*
X0098509Y0062575D01*
X0093183Y0062575D01*
X0089283Y0064048D02*
X0088284Y0064048D01*
X0086883Y0064048D02*
X0080795Y0064048D01*
X0080983Y0065647D02*
X0089283Y0065647D01*
X0084845Y0062450D02*
X0082857Y0062450D01*
X0105359Y0046465D02*
X0105359Y0046465D01*
X0096613Y0033676D02*
X0024883Y0033676D01*
X0024883Y0032078D02*
X0095357Y0032078D01*
X0094883Y0030479D02*
X0024883Y0030479D01*
X0024883Y0028881D02*
X0094960Y0028881D01*
X0095654Y0027282D02*
X0024883Y0027282D01*
X0024883Y0025684D02*
X0097722Y0025684D01*
X0097779Y0024356D02*
X0097120Y0024020D01*
X0096521Y0023585D01*
X0095998Y0023062D01*
X0095564Y0022463D01*
X0095228Y0021804D01*
X0094999Y0021101D01*
X0094883Y0020370D01*
X0094883Y0020184D01*
X0099399Y0020184D01*
X0099399Y0019816D01*
X0094883Y0019816D01*
X0094883Y0019630D01*
X0094999Y0018899D01*
X0095228Y0018196D01*
X0095564Y0017537D01*
X0095998Y0016938D01*
X0096521Y0016415D01*
X0097120Y0015980D01*
X0097779Y0015644D01*
X0098483Y0015416D01*
X0099213Y0015300D01*
X0099399Y0015300D01*
X0099399Y0019816D01*
X0099768Y0019816D01*
X0099768Y0020184D01*
X0104283Y0020184D01*
X0104283Y0020370D01*
X0104168Y0021101D01*
X0103939Y0021804D01*
X0103603Y0022463D01*
X0103168Y0023062D01*
X0102645Y0023585D01*
X0102047Y0024020D01*
X0101387Y0024356D01*
X0100684Y0024584D01*
X0099953Y0024700D01*
X0099768Y0024700D01*
X0099768Y0020184D01*
X0099399Y0020184D01*
X0099399Y0024700D01*
X0099213Y0024700D01*
X0098483Y0024584D01*
X0097779Y0024356D01*
X0097249Y0024085D02*
X0024883Y0024085D01*
X0024946Y0022487D02*
X0095581Y0022487D01*
X0094965Y0020888D02*
X0025186Y0020888D01*
X0025587Y0019290D02*
X0094937Y0019290D01*
X0095485Y0017691D02*
X0026081Y0017691D01*
X0026938Y0016093D02*
X0096965Y0016093D01*
X0099399Y0016093D02*
X0099768Y0016093D01*
X0099768Y0015300D02*
X0099953Y0015300D01*
X0100684Y0015416D01*
X0101387Y0015644D01*
X0102047Y0015980D01*
X0102645Y0016415D01*
X0103168Y0016938D01*
X0103603Y0017537D01*
X0103939Y0018196D01*
X0104168Y0018899D01*
X0104283Y0019630D01*
X0104283Y0019816D01*
X0099768Y0019816D01*
X0099768Y0015300D01*
X0099768Y0017691D02*
X0099399Y0017691D01*
X0099399Y0019290D02*
X0099768Y0019290D01*
X0099768Y0020888D02*
X0099399Y0020888D01*
X0099399Y0022487D02*
X0099768Y0022487D01*
X0099768Y0024085D02*
X0099399Y0024085D01*
X0101918Y0024085D02*
X0107165Y0024085D01*
X0105526Y0022487D02*
X0103586Y0022487D01*
X0104201Y0020888D02*
X0104883Y0020888D01*
X0104883Y0019290D02*
X0104229Y0019290D01*
X0103682Y0017691D02*
X0105452Y0017691D01*
X0106844Y0016093D02*
X0102202Y0016093D01*
X0117011Y0025684D02*
X0117253Y0025684D01*
X0130883Y0056056D02*
X0131416Y0056056D01*
X0091383Y0081632D02*
X0074063Y0081632D01*
X0090037Y0083230D02*
X0091129Y0083230D01*
X0075555Y0096018D02*
X0042385Y0096018D01*
X0042602Y0096143D02*
X0043527Y0096853D01*
X0044352Y0097678D01*
X0045062Y0098604D01*
X0045646Y0099614D01*
X0046092Y0100692D01*
X0046394Y0101819D01*
X0046518Y0102759D01*
X0038446Y0102759D01*
X0038446Y0094688D01*
X0039386Y0094811D01*
X0040513Y0095113D01*
X0041591Y0095560D01*
X0042602Y0096143D01*
X0044291Y0097617D02*
X0051820Y0097617D01*
X0050383Y0099215D02*
X0045415Y0099215D01*
X0046125Y0100814D02*
X0050383Y0100814D01*
X0050383Y0101184D02*
X0054899Y0101184D01*
X0054899Y0105700D01*
X0053137Y0105700D01*
X0050383Y0102947D01*
X0050383Y0101184D01*
X0050383Y0102412D02*
X0046472Y0102412D01*
X0046518Y0104359D02*
X0046394Y0105299D01*
X0046092Y0106426D01*
X0045646Y0107504D01*
X0045062Y0108514D01*
X0044352Y0109440D01*
X0043527Y0110265D01*
X0042602Y0110975D01*
X0041591Y0111558D01*
X0040513Y0112005D01*
X0039386Y0112307D01*
X0038446Y0112431D01*
X0038446Y0104359D01*
X0036846Y0104359D01*
X0036846Y0102759D01*
X0028775Y0102759D01*
X0028899Y0101819D01*
X0029201Y0100692D01*
X0029647Y0099614D01*
X0030230Y0098604D01*
X0030941Y0097678D01*
X0031766Y0096853D01*
X0032691Y0096143D01*
X0033702Y0095560D01*
X0034779Y0095113D01*
X0035906Y0094811D01*
X0036846Y0094688D01*
X0036846Y0102759D01*
X0038446Y0102759D01*
X0038446Y0104359D01*
X0046518Y0104359D01*
X0046311Y0105609D02*
X0053046Y0105609D01*
X0054899Y0105609D02*
X0055268Y0105609D01*
X0055268Y0104011D02*
X0054899Y0104011D01*
X0054899Y0102412D02*
X0055268Y0102412D01*
X0055268Y0100814D02*
X0054899Y0100814D01*
X0054899Y0099215D02*
X0055268Y0099215D01*
X0055268Y0097617D02*
X0054899Y0097617D01*
X0059783Y0099215D02*
X0075433Y0099215D01*
X0076387Y0100814D02*
X0059783Y0100814D01*
X0059783Y0102412D02*
X0075495Y0102412D01*
X0075554Y0102190D02*
X0075788Y0101785D01*
X0076118Y0101455D01*
X0076523Y0101221D01*
X0076975Y0101100D01*
X0078583Y0101100D01*
X0078583Y0104000D01*
X0078583Y0104000D01*
X0075433Y0104000D01*
X0075433Y0105359D01*
X0075554Y0105810D01*
X0075788Y0106215D01*
X0076118Y0106545D01*
X0076523Y0106779D01*
X0076975Y0106900D01*
X0078583Y0106900D01*
X0078583Y0104000D01*
X0075433Y0104000D01*
X0075433Y0102641D01*
X0075554Y0102190D01*
X0075433Y0104011D02*
X0058719Y0104011D01*
X0057121Y0105609D02*
X0075501Y0105609D01*
X0078583Y0105609D02*
X0078583Y0105609D01*
X0078583Y0106900D02*
X0078583Y0104000D01*
X0078583Y0104000D01*
X0078583Y0104000D01*
X0078583Y0101100D01*
X0080192Y0101100D01*
X0080643Y0101221D01*
X0081048Y0101455D01*
X0081379Y0101785D01*
X0081612Y0102190D01*
X0081733Y0102641D01*
X0081733Y0104000D01*
X0081733Y0105359D01*
X0081612Y0105810D01*
X0081379Y0106215D01*
X0081048Y0106545D01*
X0080643Y0106779D01*
X0080192Y0106900D01*
X0078583Y0106900D01*
X0078583Y0104011D02*
X0078583Y0104011D01*
X0078583Y0104000D02*
X0081733Y0104000D01*
X0078583Y0104000D01*
X0078583Y0104000D01*
X0078583Y0102412D02*
X0078583Y0102412D01*
X0080780Y0100814D02*
X0102674Y0100814D01*
X0102447Y0102412D02*
X0081672Y0102412D01*
X0081733Y0104011D02*
X0102433Y0104011D01*
X0102433Y0105609D02*
X0081666Y0105609D01*
X0103068Y0107208D02*
X0045768Y0107208D01*
X0044838Y0108806D02*
X0103383Y0108806D01*
X0103383Y0110405D02*
X0043344Y0110405D01*
X0040516Y0112003D02*
X0103383Y0112003D01*
X0103383Y0113602D02*
X0024883Y0113602D01*
X0024883Y0112003D02*
X0034776Y0112003D01*
X0034779Y0112005D02*
X0033702Y0111558D01*
X0032691Y0110975D01*
X0031766Y0110265D01*
X0030941Y0109440D01*
X0030230Y0108514D01*
X0029647Y0107504D01*
X0029201Y0106426D01*
X0028899Y0105299D01*
X0028775Y0104359D01*
X0036846Y0104359D01*
X0036846Y0112431D01*
X0035906Y0112307D01*
X0034779Y0112005D01*
X0036846Y0112003D02*
X0038446Y0112003D01*
X0038446Y0110405D02*
X0036846Y0110405D01*
X0036846Y0108806D02*
X0038446Y0108806D01*
X0038446Y0107208D02*
X0036846Y0107208D01*
X0036846Y0105609D02*
X0038446Y0105609D01*
X0038446Y0104011D02*
X0051447Y0104011D01*
X0038446Y0102412D02*
X0036846Y0102412D01*
X0036846Y0100814D02*
X0038446Y0100814D01*
X0038446Y0099215D02*
X0036846Y0099215D01*
X0036846Y0097617D02*
X0038446Y0097617D01*
X0038446Y0096018D02*
X0036846Y0096018D01*
X0032907Y0096018D02*
X0024883Y0096018D01*
X0024883Y0097617D02*
X0031002Y0097617D01*
X0029877Y0099215D02*
X0024883Y0099215D01*
X0024883Y0100814D02*
X0029168Y0100814D01*
X0028820Y0102412D02*
X0024883Y0102412D01*
X0024883Y0104011D02*
X0036846Y0104011D01*
X0029524Y0107208D02*
X0024883Y0107208D01*
X0024883Y0108806D02*
X0030455Y0108806D01*
X0031948Y0110405D02*
X0024883Y0110405D01*
X0024883Y0105609D02*
X0028982Y0105609D01*
X0024883Y0115201D02*
X0103383Y0115201D01*
X0103383Y0116799D02*
X0024883Y0116799D01*
X0024883Y0118398D02*
X0103383Y0118398D01*
X0103383Y0119996D02*
X0024883Y0119996D01*
X0024883Y0121595D02*
X0103383Y0121595D01*
X0104165Y0123193D02*
X0024883Y0123193D01*
X0024883Y0124792D02*
X0105764Y0124792D01*
X0115612Y0126390D02*
X0024883Y0126390D01*
X0024883Y0127989D02*
X0130168Y0127989D01*
X0129850Y0126390D02*
X0119555Y0126390D01*
X0117583Y0118000D02*
X0143083Y0118000D01*
X0145792Y0115291D01*
X0148646Y0115291D01*
X0152583Y0115291D02*
X0152583Y0113500D01*
X0155083Y0111000D01*
X0160083Y0111000D01*
X0162583Y0113500D01*
X0162583Y0118000D01*
X0181583Y0118000D01*
X0180871Y0118398D02*
X0222883Y0118398D01*
X0222883Y0119996D02*
X0180883Y0119996D01*
X0180883Y0121595D02*
X0221877Y0121595D01*
X0224903Y0124792D02*
X0285283Y0124792D01*
X0285283Y0126390D02*
X0223304Y0126390D01*
X0226502Y0123193D02*
X0285283Y0123193D01*
X0285283Y0121595D02*
X0227283Y0121595D01*
X0227283Y0119996D02*
X0285283Y0119996D01*
X0285283Y0118398D02*
X0227283Y0118398D01*
X0227283Y0116799D02*
X0285283Y0116799D01*
X0285283Y0115201D02*
X0227283Y0115201D01*
X0227283Y0113602D02*
X0285283Y0113602D01*
X0285283Y0112003D02*
X0227283Y0112003D01*
X0227283Y0110405D02*
X0285283Y0110405D01*
X0285283Y0108806D02*
X0227283Y0108806D01*
X0227283Y0107208D02*
X0285283Y0107208D01*
X0285283Y0105609D02*
X0227283Y0105609D01*
X0227283Y0104011D02*
X0285283Y0104011D01*
X0285283Y0102412D02*
X0227283Y0102412D01*
X0229083Y0098500D02*
X0225083Y0098500D01*
X0220583Y0098500D01*
X0217674Y0100814D02*
X0217493Y0100814D01*
X0214583Y0098500D02*
X0210083Y0098500D01*
X0208035Y0100814D02*
X0171311Y0100814D01*
X0172982Y0102412D02*
X0222883Y0102412D01*
X0222883Y0104011D02*
X0174581Y0104011D01*
X0175829Y0105609D02*
X0222883Y0105609D01*
X0222883Y0107208D02*
X0176897Y0107208D01*
X0177958Y0108806D02*
X0222883Y0108806D01*
X0222883Y0110405D02*
X0178620Y0110405D01*
X0179283Y0112003D02*
X0222883Y0112003D01*
X0222883Y0113602D02*
X0179917Y0113602D01*
X0180235Y0115201D02*
X0222883Y0115201D01*
X0222883Y0116799D02*
X0180553Y0116799D01*
X0179999Y0127989D02*
X0285283Y0127989D01*
X0285283Y0129587D02*
X0179452Y0129587D01*
X0178790Y0131186D02*
X0285283Y0131186D01*
X0285283Y0132784D02*
X0178128Y0132784D01*
X0177171Y0134383D02*
X0285225Y0134383D01*
X0285020Y0135981D02*
X0176103Y0135981D01*
X0174990Y0137580D02*
X0284592Y0137580D01*
X0284163Y0139178D02*
X0173392Y0139178D01*
X0171793Y0140777D02*
X0283283Y0140777D01*
X0282361Y0142375D02*
X0169532Y0142375D01*
X0167038Y0143974D02*
X0280922Y0143974D01*
X0279314Y0145572D02*
X0163179Y0145572D01*
X0146987Y0145572D02*
X0030853Y0145572D01*
X0029245Y0143974D02*
X0143128Y0143974D01*
X0140635Y0142375D02*
X0027806Y0142375D01*
X0026883Y0140777D02*
X0138373Y0140777D01*
X0136775Y0139178D02*
X0026003Y0139178D01*
X0025575Y0137580D02*
X0135176Y0137580D01*
X0134064Y0135981D02*
X0025147Y0135981D01*
X0024941Y0134383D02*
X0132996Y0134383D01*
X0132039Y0132784D02*
X0024883Y0132784D01*
X0024883Y0131186D02*
X0131377Y0131186D01*
X0130715Y0129587D02*
X0024883Y0129587D01*
X0033622Y0147171D02*
X0276545Y0147171D01*
X0285283Y0100814D02*
X0237993Y0100814D01*
X0232174Y0100814D02*
X0231993Y0100814D01*
X0217841Y0096018D02*
X0217325Y0096018D01*
X0212658Y0091223D02*
X0212508Y0091223D01*
X0212508Y0089624D02*
X0212658Y0089624D01*
X0208203Y0096018D02*
X0161739Y0096018D01*
X0166050Y0097617D02*
X0207111Y0097617D01*
X0207041Y0099215D02*
X0168919Y0099215D01*
X0162583Y0124000D02*
X0162583Y0124500D01*
X0235083Y0090300D02*
X0235083Y0083500D01*
X0205083Y0043362D02*
X0210012Y0038434D01*
X0261039Y0011297D02*
X0278976Y0011297D01*
X0280830Y0012896D02*
X0029337Y0012896D01*
X0031191Y0011297D02*
X0049128Y0011297D01*
X0046180Y0009699D02*
X0033867Y0009699D01*
X0040695Y0040070D02*
X0042905Y0040070D01*
X0044217Y0054457D02*
X0051894Y0054457D01*
X0263987Y0009699D02*
X0276300Y0009699D01*
D24*
X0235083Y0043500D03*
X0210083Y0064000D03*
X0198083Y0057000D03*
X0197083Y0076000D03*
X0197083Y0081000D03*
X0210083Y0098500D03*
X0230083Y0083500D03*
X0235083Y0083500D03*
X0127583Y0078000D03*
X0121083Y0083500D03*
X0121083Y0069000D03*
X0105583Y0067500D03*
X0099083Y0062000D03*
X0087583Y0061000D03*
X0087583Y0056000D03*
X0087583Y0051000D03*
X0107583Y0053500D03*
X0117583Y0118000D03*
X0117583Y0124000D03*
M02*
