%
M48
M72
T01C0.0197
T02C0.0394
T03C0.0591
T04C0.0787
T05C0.1181
%
T01
X8758Y5100
X8758Y5600
X8758Y6100
X9908Y6200
X10558Y6750
X12108Y6900
X12758Y7800
X12108Y8350
X10758Y5350
X19808Y5700
X21008Y6400
X19708Y7600
X19708Y8100
X21008Y9850
X23008Y8350
X23508Y8350
X23508Y4350
X11758Y11800
X11758Y12400
T02
X5508Y10100
X5508Y9100
X5508Y8100
X5508Y7100
X5508Y6100
X5508Y5100
X9958Y3000
X10958Y3000
X11958Y3000
X11958Y2000
X10958Y2000
X9958Y2000
X20001Y3843
X21001Y3843
X22001Y3843
X23001Y3843
X23001Y4843
X22001Y4843
X21001Y4843
X20001Y4843
T03
X15508Y10100
X14508Y10400
X13758Y11150
X16508Y10400
X17258Y11150
X17258Y13050
X16508Y13800
X15508Y14150
X14508Y13800
X13758Y13050
T04
X3765Y4844
X3765Y10356
T05
X15497Y7600
M30
