G75*
%MOIN*%
%OFA0B0*%
%FSLAX25Y25*%
%IPPOS*%
%LPD*%
%AMOC8*
5,1,8,0,0,1.08239X$1,22.5*
%
%ADD10C,0.00600*%
%ADD11C,0.01000*%
%ADD12C,0.00700*%
%ADD13C,0.00500*%
%ADD14R,0.01900X0.12800*%
%ADD15R,0.01900X0.13000*%
%ADD16R,0.01900X0.07900*%
D10*
X0272883Y0059379D02*
X0275152Y0059379D01*
X0274018Y0059379D02*
X0275152Y0060514D01*
X0275152Y0061081D01*
X0275152Y0062449D02*
X0276286Y0063583D01*
X0272883Y0063583D01*
X0272883Y0062449D02*
X0272883Y0064717D01*
X0272883Y0066132D02*
X0272883Y0066699D01*
X0273450Y0066699D01*
X0273450Y0066132D01*
X0272883Y0066132D01*
X0272883Y0067973D02*
X0272883Y0070242D01*
X0272883Y0069108D02*
X0276286Y0069108D01*
X0275152Y0067973D01*
X0278883Y0067360D02*
X0282286Y0067360D01*
X0282286Y0069061D01*
X0281719Y0069628D01*
X0280585Y0069628D01*
X0280018Y0069061D01*
X0280018Y0067360D01*
X0280018Y0068494D02*
X0278883Y0069628D01*
X0278883Y0071043D02*
X0278883Y0073311D01*
X0280585Y0072177D02*
X0280585Y0071043D01*
X0282286Y0071043D02*
X0278883Y0071043D01*
X0282286Y0071043D02*
X0282286Y0073311D01*
X0282286Y0078409D02*
X0278883Y0078409D01*
X0280585Y0078409D02*
X0280585Y0080678D01*
X0280585Y0082092D02*
X0280585Y0084361D01*
X0281152Y0084361D02*
X0278883Y0084361D01*
X0279450Y0085775D02*
X0278883Y0086342D01*
X0278883Y0087477D01*
X0279450Y0088044D01*
X0282286Y0088044D01*
X0281719Y0089458D02*
X0279450Y0089458D01*
X0278883Y0090026D01*
X0278883Y0091160D01*
X0279450Y0091727D01*
X0281719Y0091727D01*
X0282286Y0091160D01*
X0282286Y0090026D01*
X0281719Y0089458D01*
X0276286Y0088658D02*
X0273450Y0088658D01*
X0272883Y0088091D01*
X0272883Y0086956D01*
X0273450Y0086389D01*
X0276286Y0086389D01*
X0275152Y0084975D02*
X0272883Y0084975D01*
X0274585Y0084975D02*
X0274585Y0082706D01*
X0275152Y0082706D02*
X0276286Y0083840D01*
X0275152Y0084975D01*
X0275152Y0082706D02*
X0272883Y0082706D01*
X0278883Y0082092D02*
X0281152Y0082092D01*
X0282286Y0083226D01*
X0281152Y0084361D01*
X0282286Y0085775D02*
X0279450Y0085775D01*
X0275719Y0090072D02*
X0273450Y0090072D01*
X0272883Y0090639D01*
X0272883Y0091774D01*
X0273450Y0092341D01*
X0274585Y0092341D01*
X0274585Y0091207D01*
X0275719Y0092341D02*
X0276286Y0091774D01*
X0276286Y0090639D01*
X0275719Y0090072D01*
X0276286Y0093755D02*
X0273450Y0093755D01*
X0272883Y0094323D01*
X0272883Y0095457D01*
X0273450Y0096024D01*
X0276286Y0096024D01*
X0275719Y0097439D02*
X0275152Y0097439D01*
X0274585Y0098006D01*
X0274585Y0099140D01*
X0274018Y0099707D01*
X0273450Y0099707D01*
X0272883Y0099140D01*
X0272883Y0098006D01*
X0273450Y0097439D01*
X0275719Y0097439D02*
X0276286Y0098006D01*
X0276286Y0099140D01*
X0275719Y0099707D01*
X0276286Y0101122D02*
X0276286Y0103390D01*
X0276286Y0102256D02*
X0272883Y0102256D01*
X0278883Y0104758D02*
X0278883Y0105892D01*
X0279450Y0106460D01*
X0280018Y0106460D01*
X0280585Y0105892D01*
X0280585Y0104758D01*
X0281152Y0104191D01*
X0281719Y0104191D01*
X0282286Y0104758D01*
X0282286Y0105892D01*
X0281719Y0106460D01*
X0282286Y0107874D02*
X0278883Y0107874D01*
X0278883Y0110143D01*
X0278883Y0111557D02*
X0282286Y0111557D01*
X0278883Y0113826D01*
X0282286Y0113826D01*
X0281719Y0115240D02*
X0281152Y0115240D01*
X0280585Y0115808D01*
X0280585Y0116942D01*
X0280018Y0117509D01*
X0279450Y0117509D01*
X0278883Y0116942D01*
X0278883Y0115808D01*
X0279450Y0115240D01*
X0281719Y0115240D02*
X0282286Y0115808D01*
X0282286Y0116942D01*
X0281719Y0117509D01*
X0281719Y0118924D02*
X0279450Y0118924D01*
X0278883Y0119491D01*
X0278883Y0120625D01*
X0279450Y0121192D01*
X0281719Y0121192D01*
X0282286Y0120625D01*
X0282286Y0119491D01*
X0281719Y0118924D01*
X0276286Y0119537D02*
X0276286Y0121806D01*
X0275719Y0121806D01*
X0273450Y0119537D01*
X0272883Y0119537D01*
X0272883Y0118123D02*
X0272883Y0115854D01*
X0272883Y0116989D02*
X0276286Y0116989D01*
X0275152Y0115854D01*
X0275719Y0114440D02*
X0273450Y0112171D01*
X0272883Y0112738D01*
X0272883Y0113873D01*
X0273450Y0114440D01*
X0275719Y0114440D01*
X0276286Y0113873D01*
X0276286Y0112738D01*
X0275719Y0112171D01*
X0273450Y0112171D01*
X0272883Y0110757D02*
X0272883Y0108488D01*
X0275152Y0110757D01*
X0275719Y0110757D01*
X0276286Y0110189D01*
X0276286Y0109055D01*
X0275719Y0108488D01*
X0278883Y0104758D02*
X0279450Y0104191D01*
X0280585Y0107874D02*
X0280585Y0109008D01*
X0282286Y0110143D02*
X0282286Y0107874D01*
X0281152Y0099093D02*
X0278883Y0099093D01*
X0280585Y0099093D02*
X0280585Y0096825D01*
X0281152Y0096825D02*
X0282286Y0097959D01*
X0281152Y0099093D01*
X0281152Y0096825D02*
X0278883Y0096825D01*
X0278883Y0095410D02*
X0280018Y0094276D01*
X0280018Y0094843D02*
X0280018Y0093142D01*
X0278883Y0093142D02*
X0282286Y0093142D01*
X0282286Y0094843D01*
X0281719Y0095410D01*
X0280585Y0095410D01*
X0280018Y0094843D01*
X0278883Y0080678D02*
X0282286Y0080678D01*
X0281152Y0065945D02*
X0278883Y0065945D01*
X0280585Y0065945D02*
X0280585Y0063676D01*
X0281152Y0063676D02*
X0282286Y0064811D01*
X0281152Y0065945D01*
X0281152Y0063676D02*
X0278883Y0063676D01*
X0278883Y0062262D02*
X0282286Y0062262D01*
X0280585Y0062262D02*
X0280585Y0059993D01*
X0282286Y0059993D02*
X0278883Y0059993D01*
X0278883Y0058579D02*
X0282286Y0058579D01*
X0282286Y0056310D02*
X0278883Y0056310D01*
X0280018Y0057444D01*
X0278883Y0058579D01*
X0278883Y0122607D02*
X0282286Y0122607D01*
X0282286Y0124308D01*
X0281719Y0124875D01*
X0280585Y0124875D01*
X0280018Y0124308D01*
X0280018Y0122607D01*
X0280018Y0123741D02*
X0278883Y0124875D01*
D11*
X0041583Y0040567D02*
X0041583Y0014583D01*
X0268355Y0014583D01*
X0268355Y0137417D01*
X0041583Y0137417D01*
X0041583Y0111433D01*
X0041583Y0095685D02*
X0041583Y0056315D01*
D12*
X0051248Y0032348D02*
X0055185Y0032348D01*
X0053216Y0032348D02*
X0053216Y0026443D01*
X0053216Y0024474D02*
X0053216Y0018569D01*
X0051248Y0018569D02*
X0055185Y0018569D01*
X0055185Y0022506D02*
X0053216Y0024474D01*
X0057325Y0024474D02*
X0061262Y0024474D01*
X0059293Y0024474D02*
X0059293Y0018569D01*
X0065371Y0018569D02*
X0065371Y0024474D01*
X0067339Y0024474D02*
X0063402Y0024474D01*
X0063402Y0026443D02*
X0063402Y0030380D01*
X0065371Y0032348D01*
X0067339Y0030380D01*
X0067339Y0026443D01*
X0069479Y0027427D02*
X0070464Y0026443D01*
X0073416Y0026443D01*
X0073416Y0032348D01*
X0070464Y0032348D01*
X0069479Y0031364D01*
X0069479Y0030380D01*
X0070464Y0029395D01*
X0073416Y0029395D01*
X0070464Y0029395D02*
X0069479Y0028411D01*
X0069479Y0027427D01*
X0067339Y0029395D02*
X0063402Y0029395D01*
X0061262Y0032348D02*
X0057325Y0032348D01*
X0059293Y0032348D02*
X0059293Y0026443D01*
X0069479Y0022506D02*
X0069479Y0018569D01*
X0069479Y0021521D02*
X0073416Y0021521D01*
X0073416Y0022506D02*
X0071448Y0024474D01*
X0069479Y0022506D01*
X0073416Y0022506D02*
X0073416Y0018569D01*
X0075557Y0019553D02*
X0076541Y0018569D01*
X0079493Y0018569D01*
X0079493Y0024474D01*
X0076541Y0024474D01*
X0075557Y0023490D01*
X0075557Y0022506D01*
X0076541Y0021521D01*
X0079493Y0021521D01*
X0076541Y0021521D02*
X0075557Y0020537D01*
X0075557Y0019553D01*
X0081634Y0026443D02*
X0081634Y0030380D01*
X0083602Y0032348D01*
X0085571Y0030380D01*
X0085571Y0026443D01*
X0087711Y0026443D02*
X0087711Y0030380D01*
X0089679Y0032348D01*
X0091648Y0030380D01*
X0091648Y0026443D01*
X0093788Y0026443D02*
X0097725Y0030380D01*
X0099865Y0030380D02*
X0099865Y0031364D01*
X0100850Y0032348D01*
X0102818Y0032348D01*
X0103802Y0031364D01*
X0099865Y0030380D02*
X0103802Y0026443D01*
X0099865Y0026443D01*
X0097725Y0026443D02*
X0093788Y0030380D01*
X0091648Y0029395D02*
X0087711Y0029395D01*
X0085571Y0029395D02*
X0081634Y0029395D01*
D13*
X0269983Y0033500D02*
X0269983Y0034000D01*
X0269983Y0034500D01*
X0269983Y0035000D01*
X0269983Y0035500D01*
X0269983Y0046500D01*
X0269983Y0047000D01*
X0269983Y0047500D01*
X0269983Y0048000D01*
X0269983Y0048500D01*
X0272283Y0047300D02*
X0272283Y0034700D01*
X0273483Y0035500D02*
X0273483Y0036000D01*
X0273483Y0036500D01*
X0273483Y0037000D01*
X0273483Y0037600D01*
X0273483Y0038100D01*
X0276383Y0037100D02*
X0276383Y0044800D01*
X0273483Y0036500D02*
X0273686Y0036406D01*
X0273891Y0036316D01*
X0274098Y0036232D01*
X0274307Y0036153D01*
X0274518Y0036079D01*
X0274730Y0036010D01*
X0274945Y0035946D01*
X0275160Y0035887D01*
X0275377Y0035834D01*
X0275596Y0035785D01*
X0275815Y0035742D01*
X0276036Y0035705D01*
X0276257Y0035673D01*
X0276479Y0035646D01*
X0276701Y0035624D01*
X0276924Y0035608D01*
X0277148Y0035597D01*
X0277371Y0035592D01*
X0277595Y0035592D01*
X0277818Y0035597D01*
X0278042Y0035608D01*
X0278265Y0035624D01*
X0278487Y0035646D01*
X0278709Y0035673D01*
X0278930Y0035705D01*
X0279151Y0035742D01*
X0279370Y0035785D01*
X0279589Y0035834D01*
X0279806Y0035887D01*
X0280021Y0035946D01*
X0280236Y0036010D01*
X0280448Y0036079D01*
X0280659Y0036153D01*
X0280868Y0036232D01*
X0281075Y0036316D01*
X0281280Y0036406D01*
X0281483Y0036500D01*
X0281483Y0037000D01*
X0281483Y0037500D01*
X0281483Y0038000D01*
X0281483Y0036500D02*
X0281483Y0036000D01*
X0281483Y0035500D01*
X0282783Y0034700D02*
X0282783Y0047300D01*
X0281483Y0046400D02*
X0281483Y0045900D01*
X0281483Y0045400D01*
X0281483Y0044900D01*
X0281483Y0044300D01*
X0281483Y0043800D01*
X0278683Y0044800D02*
X0278683Y0037100D01*
X0285083Y0048001D02*
X0284817Y0048180D01*
X0284546Y0048354D01*
X0284272Y0048520D01*
X0283993Y0048680D01*
X0283711Y0048833D01*
X0283424Y0048980D01*
X0283135Y0049119D01*
X0282842Y0049251D01*
X0282546Y0049376D01*
X0282247Y0049494D01*
X0281946Y0049605D01*
X0281641Y0049708D01*
X0281335Y0049804D01*
X0281026Y0049893D01*
X0280715Y0049973D01*
X0280402Y0050047D01*
X0280087Y0050113D01*
X0279771Y0050171D01*
X0279454Y0050221D01*
X0279136Y0050264D01*
X0278816Y0050299D01*
X0278496Y0050326D01*
X0278175Y0050345D01*
X0277854Y0050357D01*
X0277533Y0050361D01*
X0277212Y0050357D01*
X0276891Y0050345D01*
X0276570Y0050326D01*
X0276250Y0050299D01*
X0275930Y0050264D01*
X0275612Y0050221D01*
X0275295Y0050171D01*
X0274979Y0050113D01*
X0274664Y0050047D01*
X0274351Y0049973D01*
X0274040Y0049893D01*
X0273731Y0049804D01*
X0273425Y0049708D01*
X0273120Y0049605D01*
X0272819Y0049494D01*
X0272520Y0049376D01*
X0272224Y0049251D01*
X0271931Y0049119D01*
X0271642Y0048980D01*
X0271355Y0048833D01*
X0271073Y0048680D01*
X0270794Y0048520D01*
X0270520Y0048354D01*
X0270249Y0048180D01*
X0269983Y0048001D01*
X0273483Y0046400D02*
X0273483Y0045900D01*
X0273483Y0045400D01*
X0273483Y0044900D01*
X0273483Y0044400D01*
X0273483Y0043900D01*
X0273483Y0035500D02*
X0273686Y0035406D01*
X0273891Y0035316D01*
X0274098Y0035232D01*
X0274307Y0035153D01*
X0274518Y0035079D01*
X0274730Y0035010D01*
X0274945Y0034946D01*
X0275160Y0034887D01*
X0275377Y0034834D01*
X0275596Y0034785D01*
X0275815Y0034742D01*
X0276036Y0034705D01*
X0276257Y0034673D01*
X0276479Y0034646D01*
X0276701Y0034624D01*
X0276924Y0034608D01*
X0277148Y0034597D01*
X0277371Y0034592D01*
X0277595Y0034592D01*
X0277818Y0034597D01*
X0278042Y0034608D01*
X0278265Y0034624D01*
X0278487Y0034646D01*
X0278709Y0034673D01*
X0278930Y0034705D01*
X0279151Y0034742D01*
X0279370Y0034785D01*
X0279589Y0034834D01*
X0279806Y0034887D01*
X0280021Y0034946D01*
X0280236Y0035010D01*
X0280448Y0035079D01*
X0280659Y0035153D01*
X0280868Y0035232D01*
X0281075Y0035316D01*
X0281280Y0035406D01*
X0281483Y0035500D01*
X0285083Y0046501D02*
X0284817Y0046680D01*
X0284546Y0046854D01*
X0284272Y0047020D01*
X0283993Y0047180D01*
X0283711Y0047333D01*
X0283424Y0047480D01*
X0283135Y0047619D01*
X0282842Y0047751D01*
X0282546Y0047876D01*
X0282247Y0047994D01*
X0281946Y0048105D01*
X0281641Y0048208D01*
X0281335Y0048304D01*
X0281026Y0048393D01*
X0280715Y0048473D01*
X0280402Y0048547D01*
X0280087Y0048613D01*
X0279771Y0048671D01*
X0279454Y0048721D01*
X0279136Y0048764D01*
X0278816Y0048799D01*
X0278496Y0048826D01*
X0278175Y0048845D01*
X0277854Y0048857D01*
X0277533Y0048861D01*
X0277212Y0048857D01*
X0276891Y0048845D01*
X0276570Y0048826D01*
X0276250Y0048799D01*
X0275930Y0048764D01*
X0275612Y0048721D01*
X0275295Y0048671D01*
X0274979Y0048613D01*
X0274664Y0048547D01*
X0274351Y0048473D01*
X0274040Y0048393D01*
X0273731Y0048304D01*
X0273425Y0048208D01*
X0273120Y0048105D01*
X0272819Y0047994D01*
X0272520Y0047876D01*
X0272224Y0047751D01*
X0271931Y0047619D01*
X0271642Y0047480D01*
X0271355Y0047333D01*
X0271073Y0047180D01*
X0270794Y0047020D01*
X0270520Y0046854D01*
X0270249Y0046680D01*
X0269983Y0046501D01*
X0269983Y0035499D02*
X0270249Y0035320D01*
X0270520Y0035146D01*
X0270794Y0034980D01*
X0271073Y0034820D01*
X0271355Y0034667D01*
X0271642Y0034520D01*
X0271931Y0034381D01*
X0272224Y0034249D01*
X0272520Y0034124D01*
X0272819Y0034006D01*
X0273120Y0033895D01*
X0273425Y0033792D01*
X0273731Y0033696D01*
X0274040Y0033607D01*
X0274351Y0033527D01*
X0274664Y0033453D01*
X0274979Y0033387D01*
X0275295Y0033329D01*
X0275612Y0033279D01*
X0275930Y0033236D01*
X0276250Y0033201D01*
X0276570Y0033174D01*
X0276891Y0033155D01*
X0277212Y0033143D01*
X0277533Y0033139D01*
X0277854Y0033143D01*
X0278175Y0033155D01*
X0278496Y0033174D01*
X0278816Y0033201D01*
X0279136Y0033236D01*
X0279454Y0033279D01*
X0279771Y0033329D01*
X0280087Y0033387D01*
X0280402Y0033453D01*
X0280715Y0033527D01*
X0281026Y0033607D01*
X0281335Y0033696D01*
X0281641Y0033792D01*
X0281946Y0033895D01*
X0282247Y0034006D01*
X0282546Y0034124D01*
X0282842Y0034249D01*
X0283135Y0034381D01*
X0283424Y0034520D01*
X0283711Y0034667D01*
X0283993Y0034820D01*
X0284272Y0034980D01*
X0284546Y0035146D01*
X0284817Y0035320D01*
X0285083Y0035499D01*
X0285083Y0035500D02*
X0285083Y0046500D01*
X0285083Y0047000D01*
X0285083Y0047500D01*
X0285083Y0048000D01*
X0285083Y0048500D01*
X0285083Y0034999D02*
X0284817Y0034820D01*
X0284546Y0034646D01*
X0284272Y0034480D01*
X0283993Y0034320D01*
X0283711Y0034167D01*
X0283424Y0034020D01*
X0283135Y0033881D01*
X0282842Y0033749D01*
X0282546Y0033624D01*
X0282247Y0033506D01*
X0281946Y0033395D01*
X0281641Y0033292D01*
X0281335Y0033196D01*
X0281026Y0033107D01*
X0280715Y0033027D01*
X0280402Y0032953D01*
X0280087Y0032887D01*
X0279771Y0032829D01*
X0279454Y0032779D01*
X0279136Y0032736D01*
X0278816Y0032701D01*
X0278496Y0032674D01*
X0278175Y0032655D01*
X0277854Y0032643D01*
X0277533Y0032639D01*
X0277212Y0032643D01*
X0276891Y0032655D01*
X0276570Y0032674D01*
X0276250Y0032701D01*
X0275930Y0032736D01*
X0275612Y0032779D01*
X0275295Y0032829D01*
X0274979Y0032887D01*
X0274664Y0032953D01*
X0274351Y0033027D01*
X0274040Y0033107D01*
X0273731Y0033196D01*
X0273425Y0033292D01*
X0273120Y0033395D01*
X0272819Y0033506D01*
X0272520Y0033624D01*
X0272224Y0033749D01*
X0271931Y0033881D01*
X0271642Y0034020D01*
X0271355Y0034167D01*
X0271073Y0034320D01*
X0270794Y0034480D01*
X0270520Y0034646D01*
X0270249Y0034820D01*
X0269983Y0034999D01*
X0269983Y0047001D02*
X0270249Y0047180D01*
X0270520Y0047354D01*
X0270794Y0047520D01*
X0271073Y0047680D01*
X0271355Y0047833D01*
X0271642Y0047980D01*
X0271931Y0048119D01*
X0272224Y0048251D01*
X0272520Y0048376D01*
X0272819Y0048494D01*
X0273120Y0048605D01*
X0273425Y0048708D01*
X0273731Y0048804D01*
X0274040Y0048893D01*
X0274351Y0048973D01*
X0274664Y0049047D01*
X0274979Y0049113D01*
X0275295Y0049171D01*
X0275612Y0049221D01*
X0275930Y0049264D01*
X0276250Y0049299D01*
X0276570Y0049326D01*
X0276891Y0049345D01*
X0277212Y0049357D01*
X0277533Y0049361D01*
X0277854Y0049357D01*
X0278175Y0049345D01*
X0278496Y0049326D01*
X0278816Y0049299D01*
X0279136Y0049264D01*
X0279454Y0049221D01*
X0279771Y0049171D01*
X0280087Y0049113D01*
X0280402Y0049047D01*
X0280715Y0048973D01*
X0281026Y0048893D01*
X0281335Y0048804D01*
X0281641Y0048708D01*
X0281946Y0048605D01*
X0282247Y0048494D01*
X0282546Y0048376D01*
X0282842Y0048251D01*
X0283135Y0048119D01*
X0283424Y0047980D01*
X0283711Y0047833D01*
X0283993Y0047680D01*
X0284272Y0047520D01*
X0284546Y0047354D01*
X0284817Y0047180D01*
X0285083Y0047001D01*
X0285083Y0034499D02*
X0284817Y0034320D01*
X0284546Y0034146D01*
X0284272Y0033980D01*
X0283993Y0033820D01*
X0283711Y0033667D01*
X0283424Y0033520D01*
X0283135Y0033381D01*
X0282842Y0033249D01*
X0282546Y0033124D01*
X0282247Y0033006D01*
X0281946Y0032895D01*
X0281641Y0032792D01*
X0281335Y0032696D01*
X0281026Y0032607D01*
X0280715Y0032527D01*
X0280402Y0032453D01*
X0280087Y0032387D01*
X0279771Y0032329D01*
X0279454Y0032279D01*
X0279136Y0032236D01*
X0278816Y0032201D01*
X0278496Y0032174D01*
X0278175Y0032155D01*
X0277854Y0032143D01*
X0277533Y0032139D01*
X0277212Y0032143D01*
X0276891Y0032155D01*
X0276570Y0032174D01*
X0276250Y0032201D01*
X0275930Y0032236D01*
X0275612Y0032279D01*
X0275295Y0032329D01*
X0274979Y0032387D01*
X0274664Y0032453D01*
X0274351Y0032527D01*
X0274040Y0032607D01*
X0273731Y0032696D01*
X0273425Y0032792D01*
X0273120Y0032895D01*
X0272819Y0033006D01*
X0272520Y0033124D01*
X0272224Y0033249D01*
X0271931Y0033381D01*
X0271642Y0033520D01*
X0271355Y0033667D01*
X0271073Y0033820D01*
X0270794Y0033980D01*
X0270520Y0034146D01*
X0270249Y0034320D01*
X0269983Y0034499D01*
X0273483Y0044900D02*
X0273686Y0044994D01*
X0273891Y0045084D01*
X0274098Y0045168D01*
X0274307Y0045247D01*
X0274518Y0045321D01*
X0274730Y0045390D01*
X0274945Y0045454D01*
X0275160Y0045513D01*
X0275377Y0045566D01*
X0275596Y0045615D01*
X0275815Y0045658D01*
X0276036Y0045695D01*
X0276257Y0045727D01*
X0276479Y0045754D01*
X0276701Y0045776D01*
X0276924Y0045792D01*
X0277148Y0045803D01*
X0277371Y0045808D01*
X0277595Y0045808D01*
X0277818Y0045803D01*
X0278042Y0045792D01*
X0278265Y0045776D01*
X0278487Y0045754D01*
X0278709Y0045727D01*
X0278930Y0045695D01*
X0279151Y0045658D01*
X0279370Y0045615D01*
X0279589Y0045566D01*
X0279806Y0045513D01*
X0280021Y0045454D01*
X0280236Y0045390D01*
X0280448Y0045321D01*
X0280659Y0045247D01*
X0280868Y0045168D01*
X0281075Y0045084D01*
X0281280Y0044994D01*
X0281483Y0044900D01*
X0285083Y0033999D02*
X0284817Y0033820D01*
X0284546Y0033646D01*
X0284272Y0033480D01*
X0283993Y0033320D01*
X0283711Y0033167D01*
X0283424Y0033020D01*
X0283135Y0032881D01*
X0282842Y0032749D01*
X0282546Y0032624D01*
X0282247Y0032506D01*
X0281946Y0032395D01*
X0281641Y0032292D01*
X0281335Y0032196D01*
X0281026Y0032107D01*
X0280715Y0032027D01*
X0280402Y0031953D01*
X0280087Y0031887D01*
X0279771Y0031829D01*
X0279454Y0031779D01*
X0279136Y0031736D01*
X0278816Y0031701D01*
X0278496Y0031674D01*
X0278175Y0031655D01*
X0277854Y0031643D01*
X0277533Y0031639D01*
X0277212Y0031643D01*
X0276891Y0031655D01*
X0276570Y0031674D01*
X0276250Y0031701D01*
X0275930Y0031736D01*
X0275612Y0031779D01*
X0275295Y0031829D01*
X0274979Y0031887D01*
X0274664Y0031953D01*
X0274351Y0032027D01*
X0274040Y0032107D01*
X0273731Y0032196D01*
X0273425Y0032292D01*
X0273120Y0032395D01*
X0272819Y0032506D01*
X0272520Y0032624D01*
X0272224Y0032749D01*
X0271931Y0032881D01*
X0271642Y0033020D01*
X0271355Y0033167D01*
X0271073Y0033320D01*
X0270794Y0033480D01*
X0270520Y0033646D01*
X0270249Y0033820D01*
X0269983Y0033999D01*
X0269983Y0047501D02*
X0270249Y0047680D01*
X0270520Y0047854D01*
X0270794Y0048020D01*
X0271073Y0048180D01*
X0271355Y0048333D01*
X0271642Y0048480D01*
X0271931Y0048619D01*
X0272224Y0048751D01*
X0272520Y0048876D01*
X0272819Y0048994D01*
X0273120Y0049105D01*
X0273425Y0049208D01*
X0273731Y0049304D01*
X0274040Y0049393D01*
X0274351Y0049473D01*
X0274664Y0049547D01*
X0274979Y0049613D01*
X0275295Y0049671D01*
X0275612Y0049721D01*
X0275930Y0049764D01*
X0276250Y0049799D01*
X0276570Y0049826D01*
X0276891Y0049845D01*
X0277212Y0049857D01*
X0277533Y0049861D01*
X0277854Y0049857D01*
X0278175Y0049845D01*
X0278496Y0049826D01*
X0278816Y0049799D01*
X0279136Y0049764D01*
X0279454Y0049721D01*
X0279771Y0049671D01*
X0280087Y0049613D01*
X0280402Y0049547D01*
X0280715Y0049473D01*
X0281026Y0049393D01*
X0281335Y0049304D01*
X0281641Y0049208D01*
X0281946Y0049105D01*
X0282247Y0048994D01*
X0282546Y0048876D01*
X0282842Y0048751D01*
X0283135Y0048619D01*
X0283424Y0048480D01*
X0283711Y0048333D01*
X0283993Y0048180D01*
X0284272Y0048020D01*
X0284546Y0047854D01*
X0284817Y0047680D01*
X0285083Y0047501D01*
X0281483Y0037000D02*
X0281280Y0036906D01*
X0281075Y0036816D01*
X0280868Y0036732D01*
X0280659Y0036653D01*
X0280448Y0036579D01*
X0280236Y0036510D01*
X0280021Y0036446D01*
X0279806Y0036387D01*
X0279589Y0036334D01*
X0279370Y0036285D01*
X0279151Y0036242D01*
X0278930Y0036205D01*
X0278709Y0036173D01*
X0278487Y0036146D01*
X0278265Y0036124D01*
X0278042Y0036108D01*
X0277818Y0036097D01*
X0277595Y0036092D01*
X0277371Y0036092D01*
X0277148Y0036097D01*
X0276924Y0036108D01*
X0276701Y0036124D01*
X0276479Y0036146D01*
X0276257Y0036173D01*
X0276036Y0036205D01*
X0275815Y0036242D01*
X0275596Y0036285D01*
X0275377Y0036334D01*
X0275160Y0036387D01*
X0274945Y0036446D01*
X0274730Y0036510D01*
X0274518Y0036579D01*
X0274307Y0036653D01*
X0274098Y0036732D01*
X0273891Y0036816D01*
X0273686Y0036906D01*
X0273483Y0037000D01*
X0273483Y0045400D02*
X0273686Y0045494D01*
X0273891Y0045584D01*
X0274098Y0045668D01*
X0274307Y0045747D01*
X0274518Y0045821D01*
X0274730Y0045890D01*
X0274945Y0045954D01*
X0275160Y0046013D01*
X0275377Y0046066D01*
X0275596Y0046115D01*
X0275815Y0046158D01*
X0276036Y0046195D01*
X0276257Y0046227D01*
X0276479Y0046254D01*
X0276701Y0046276D01*
X0276924Y0046292D01*
X0277148Y0046303D01*
X0277371Y0046308D01*
X0277595Y0046308D01*
X0277818Y0046303D01*
X0278042Y0046292D01*
X0278265Y0046276D01*
X0278487Y0046254D01*
X0278709Y0046227D01*
X0278930Y0046195D01*
X0279151Y0046158D01*
X0279370Y0046115D01*
X0279589Y0046066D01*
X0279806Y0046013D01*
X0280021Y0045954D01*
X0280236Y0045890D01*
X0280448Y0045821D01*
X0280659Y0045747D01*
X0280868Y0045668D01*
X0281075Y0045584D01*
X0281280Y0045494D01*
X0281483Y0045400D01*
X0285083Y0033499D02*
X0284817Y0033320D01*
X0284546Y0033146D01*
X0284272Y0032980D01*
X0283993Y0032820D01*
X0283711Y0032667D01*
X0283424Y0032520D01*
X0283135Y0032381D01*
X0282842Y0032249D01*
X0282546Y0032124D01*
X0282247Y0032006D01*
X0281946Y0031895D01*
X0281641Y0031792D01*
X0281335Y0031696D01*
X0281026Y0031607D01*
X0280715Y0031527D01*
X0280402Y0031453D01*
X0280087Y0031387D01*
X0279771Y0031329D01*
X0279454Y0031279D01*
X0279136Y0031236D01*
X0278816Y0031201D01*
X0278496Y0031174D01*
X0278175Y0031155D01*
X0277854Y0031143D01*
X0277533Y0031139D01*
X0277212Y0031143D01*
X0276891Y0031155D01*
X0276570Y0031174D01*
X0276250Y0031201D01*
X0275930Y0031236D01*
X0275612Y0031279D01*
X0275295Y0031329D01*
X0274979Y0031387D01*
X0274664Y0031453D01*
X0274351Y0031527D01*
X0274040Y0031607D01*
X0273731Y0031696D01*
X0273425Y0031792D01*
X0273120Y0031895D01*
X0272819Y0032006D01*
X0272520Y0032124D01*
X0272224Y0032249D01*
X0271931Y0032381D01*
X0271642Y0032520D01*
X0271355Y0032667D01*
X0271073Y0032820D01*
X0270794Y0032980D01*
X0270520Y0033146D01*
X0270249Y0033320D01*
X0269983Y0033499D01*
X0273483Y0045900D02*
X0273686Y0045994D01*
X0273891Y0046084D01*
X0274098Y0046168D01*
X0274307Y0046247D01*
X0274518Y0046321D01*
X0274730Y0046390D01*
X0274945Y0046454D01*
X0275160Y0046513D01*
X0275377Y0046566D01*
X0275596Y0046615D01*
X0275815Y0046658D01*
X0276036Y0046695D01*
X0276257Y0046727D01*
X0276479Y0046754D01*
X0276701Y0046776D01*
X0276924Y0046792D01*
X0277148Y0046803D01*
X0277371Y0046808D01*
X0277595Y0046808D01*
X0277818Y0046803D01*
X0278042Y0046792D01*
X0278265Y0046776D01*
X0278487Y0046754D01*
X0278709Y0046727D01*
X0278930Y0046695D01*
X0279151Y0046658D01*
X0279370Y0046615D01*
X0279589Y0046566D01*
X0279806Y0046513D01*
X0280021Y0046454D01*
X0280236Y0046390D01*
X0280448Y0046321D01*
X0280659Y0046247D01*
X0280868Y0046168D01*
X0281075Y0046084D01*
X0281280Y0045994D01*
X0281483Y0045900D01*
X0282783Y0034700D02*
X0282547Y0034576D01*
X0282308Y0034457D01*
X0282066Y0034344D01*
X0281821Y0034237D01*
X0281574Y0034136D01*
X0281325Y0034041D01*
X0281073Y0033952D01*
X0280819Y0033870D01*
X0280563Y0033793D01*
X0280306Y0033723D01*
X0280047Y0033659D01*
X0279786Y0033601D01*
X0279524Y0033549D01*
X0279261Y0033504D01*
X0278997Y0033466D01*
X0278732Y0033433D01*
X0278466Y0033408D01*
X0278200Y0033388D01*
X0277933Y0033375D01*
X0277666Y0033369D01*
X0277400Y0033369D01*
X0277133Y0033375D01*
X0276866Y0033388D01*
X0276600Y0033408D01*
X0276334Y0033433D01*
X0276069Y0033466D01*
X0275805Y0033504D01*
X0275542Y0033549D01*
X0275280Y0033601D01*
X0275019Y0033659D01*
X0274760Y0033723D01*
X0274503Y0033793D01*
X0274247Y0033870D01*
X0273993Y0033952D01*
X0273741Y0034041D01*
X0273492Y0034136D01*
X0273245Y0034237D01*
X0273000Y0034344D01*
X0272758Y0034457D01*
X0272519Y0034576D01*
X0272283Y0034700D01*
X0269983Y0048501D02*
X0270249Y0048680D01*
X0270520Y0048854D01*
X0270794Y0049020D01*
X0271073Y0049180D01*
X0271355Y0049333D01*
X0271642Y0049480D01*
X0271931Y0049619D01*
X0272224Y0049751D01*
X0272520Y0049876D01*
X0272819Y0049994D01*
X0273120Y0050105D01*
X0273425Y0050208D01*
X0273731Y0050304D01*
X0274040Y0050393D01*
X0274351Y0050473D01*
X0274664Y0050547D01*
X0274979Y0050613D01*
X0275295Y0050671D01*
X0275612Y0050721D01*
X0275930Y0050764D01*
X0276250Y0050799D01*
X0276570Y0050826D01*
X0276891Y0050845D01*
X0277212Y0050857D01*
X0277533Y0050861D01*
X0277854Y0050857D01*
X0278175Y0050845D01*
X0278496Y0050826D01*
X0278816Y0050799D01*
X0279136Y0050764D01*
X0279454Y0050721D01*
X0279771Y0050671D01*
X0280087Y0050613D01*
X0280402Y0050547D01*
X0280715Y0050473D01*
X0281026Y0050393D01*
X0281335Y0050304D01*
X0281641Y0050208D01*
X0281946Y0050105D01*
X0282247Y0049994D01*
X0282546Y0049876D01*
X0282842Y0049751D01*
X0283135Y0049619D01*
X0283424Y0049480D01*
X0283711Y0049333D01*
X0283993Y0049180D01*
X0284272Y0049020D01*
X0284546Y0048854D01*
X0284817Y0048680D01*
X0285083Y0048501D01*
X0281483Y0036000D02*
X0281280Y0035906D01*
X0281075Y0035816D01*
X0280868Y0035732D01*
X0280659Y0035653D01*
X0280448Y0035579D01*
X0280236Y0035510D01*
X0280021Y0035446D01*
X0279806Y0035387D01*
X0279589Y0035334D01*
X0279370Y0035285D01*
X0279151Y0035242D01*
X0278930Y0035205D01*
X0278709Y0035173D01*
X0278487Y0035146D01*
X0278265Y0035124D01*
X0278042Y0035108D01*
X0277818Y0035097D01*
X0277595Y0035092D01*
X0277371Y0035092D01*
X0277148Y0035097D01*
X0276924Y0035108D01*
X0276701Y0035124D01*
X0276479Y0035146D01*
X0276257Y0035173D01*
X0276036Y0035205D01*
X0275815Y0035242D01*
X0275596Y0035285D01*
X0275377Y0035334D01*
X0275160Y0035387D01*
X0274945Y0035446D01*
X0274730Y0035510D01*
X0274518Y0035579D01*
X0274307Y0035653D01*
X0274098Y0035732D01*
X0273891Y0035816D01*
X0273686Y0035906D01*
X0273483Y0036000D01*
X0272283Y0047300D02*
X0272519Y0047424D01*
X0272758Y0047543D01*
X0273000Y0047656D01*
X0273245Y0047763D01*
X0273492Y0047864D01*
X0273741Y0047959D01*
X0273993Y0048048D01*
X0274247Y0048130D01*
X0274503Y0048207D01*
X0274760Y0048277D01*
X0275019Y0048341D01*
X0275280Y0048399D01*
X0275542Y0048451D01*
X0275805Y0048496D01*
X0276069Y0048534D01*
X0276334Y0048567D01*
X0276600Y0048592D01*
X0276866Y0048612D01*
X0277133Y0048625D01*
X0277400Y0048631D01*
X0277666Y0048631D01*
X0277933Y0048625D01*
X0278200Y0048612D01*
X0278466Y0048592D01*
X0278732Y0048567D01*
X0278997Y0048534D01*
X0279261Y0048496D01*
X0279524Y0048451D01*
X0279786Y0048399D01*
X0280047Y0048341D01*
X0280306Y0048277D01*
X0280563Y0048207D01*
X0280819Y0048130D01*
X0281073Y0048048D01*
X0281325Y0047959D01*
X0281574Y0047864D01*
X0281821Y0047763D01*
X0282066Y0047656D01*
X0282308Y0047543D01*
X0282547Y0047424D01*
X0282783Y0047300D01*
X0281483Y0038001D02*
X0281338Y0037907D01*
X0281190Y0037816D01*
X0281040Y0037729D01*
X0280887Y0037646D01*
X0280733Y0037567D01*
X0280577Y0037491D01*
X0280419Y0037420D01*
X0280260Y0037352D01*
X0280099Y0037288D01*
X0279936Y0037228D01*
X0279772Y0037172D01*
X0279606Y0037120D01*
X0279440Y0037072D01*
X0279272Y0037028D01*
X0279103Y0036988D01*
X0278933Y0036953D01*
X0278763Y0036921D01*
X0278592Y0036894D01*
X0278420Y0036871D01*
X0278247Y0036852D01*
X0278075Y0036837D01*
X0277902Y0036826D01*
X0277728Y0036820D01*
X0277555Y0036818D01*
X0277381Y0036820D01*
X0277208Y0036827D01*
X0277035Y0036837D01*
X0276862Y0036852D01*
X0276690Y0036871D01*
X0276518Y0036894D01*
X0276347Y0036922D01*
X0276176Y0036953D01*
X0276007Y0036989D01*
X0275838Y0037029D01*
X0275670Y0037073D01*
X0275504Y0037121D01*
X0275338Y0037173D01*
X0275174Y0037229D01*
X0275011Y0037289D01*
X0274850Y0037353D01*
X0274691Y0037421D01*
X0274533Y0037493D01*
X0274377Y0037569D01*
X0274223Y0037648D01*
X0274071Y0037732D01*
X0273921Y0037818D01*
X0273773Y0037909D01*
X0273627Y0038003D01*
X0273484Y0038101D01*
X0273484Y0043899D02*
X0273629Y0043993D01*
X0273777Y0044084D01*
X0273927Y0044171D01*
X0274080Y0044254D01*
X0274234Y0044333D01*
X0274390Y0044409D01*
X0274548Y0044480D01*
X0274707Y0044548D01*
X0274868Y0044612D01*
X0275031Y0044672D01*
X0275195Y0044728D01*
X0275361Y0044780D01*
X0275527Y0044828D01*
X0275695Y0044872D01*
X0275864Y0044912D01*
X0276034Y0044947D01*
X0276204Y0044979D01*
X0276375Y0045006D01*
X0276547Y0045029D01*
X0276720Y0045048D01*
X0276892Y0045063D01*
X0277065Y0045074D01*
X0277239Y0045080D01*
X0277412Y0045082D01*
X0277586Y0045080D01*
X0277759Y0045073D01*
X0277932Y0045063D01*
X0278105Y0045048D01*
X0278277Y0045029D01*
X0278449Y0045006D01*
X0278620Y0044978D01*
X0278791Y0044947D01*
X0278960Y0044911D01*
X0279129Y0044871D01*
X0279297Y0044827D01*
X0279463Y0044779D01*
X0279629Y0044727D01*
X0279793Y0044671D01*
X0279956Y0044611D01*
X0280117Y0044547D01*
X0280276Y0044479D01*
X0280434Y0044407D01*
X0280590Y0044331D01*
X0280744Y0044252D01*
X0280896Y0044168D01*
X0281046Y0044082D01*
X0281194Y0043991D01*
X0281340Y0043897D01*
X0281483Y0043799D01*
X0281483Y0037501D02*
X0281338Y0037407D01*
X0281190Y0037316D01*
X0281040Y0037229D01*
X0280887Y0037146D01*
X0280733Y0037067D01*
X0280577Y0036991D01*
X0280419Y0036920D01*
X0280260Y0036852D01*
X0280099Y0036788D01*
X0279936Y0036728D01*
X0279772Y0036672D01*
X0279606Y0036620D01*
X0279440Y0036572D01*
X0279272Y0036528D01*
X0279103Y0036488D01*
X0278933Y0036453D01*
X0278763Y0036421D01*
X0278592Y0036394D01*
X0278420Y0036371D01*
X0278247Y0036352D01*
X0278075Y0036337D01*
X0277902Y0036326D01*
X0277728Y0036320D01*
X0277555Y0036318D01*
X0277381Y0036320D01*
X0277208Y0036327D01*
X0277035Y0036337D01*
X0276862Y0036352D01*
X0276690Y0036371D01*
X0276518Y0036394D01*
X0276347Y0036422D01*
X0276176Y0036453D01*
X0276007Y0036489D01*
X0275838Y0036529D01*
X0275670Y0036573D01*
X0275504Y0036621D01*
X0275338Y0036673D01*
X0275174Y0036729D01*
X0275011Y0036789D01*
X0274850Y0036853D01*
X0274691Y0036921D01*
X0274533Y0036993D01*
X0274377Y0037069D01*
X0274223Y0037148D01*
X0274071Y0037232D01*
X0273921Y0037318D01*
X0273773Y0037409D01*
X0273627Y0037503D01*
X0273484Y0037601D01*
X0273484Y0044399D02*
X0273629Y0044493D01*
X0273777Y0044584D01*
X0273927Y0044671D01*
X0274080Y0044754D01*
X0274234Y0044833D01*
X0274390Y0044909D01*
X0274548Y0044980D01*
X0274707Y0045048D01*
X0274868Y0045112D01*
X0275031Y0045172D01*
X0275195Y0045228D01*
X0275361Y0045280D01*
X0275527Y0045328D01*
X0275695Y0045372D01*
X0275864Y0045412D01*
X0276034Y0045447D01*
X0276204Y0045479D01*
X0276375Y0045506D01*
X0276547Y0045529D01*
X0276720Y0045548D01*
X0276892Y0045563D01*
X0277065Y0045574D01*
X0277239Y0045580D01*
X0277412Y0045582D01*
X0277586Y0045580D01*
X0277759Y0045573D01*
X0277932Y0045563D01*
X0278105Y0045548D01*
X0278277Y0045529D01*
X0278449Y0045506D01*
X0278620Y0045478D01*
X0278791Y0045447D01*
X0278960Y0045411D01*
X0279129Y0045371D01*
X0279297Y0045327D01*
X0279463Y0045279D01*
X0279629Y0045227D01*
X0279793Y0045171D01*
X0279956Y0045111D01*
X0280117Y0045047D01*
X0280276Y0044979D01*
X0280434Y0044907D01*
X0280590Y0044831D01*
X0280744Y0044752D01*
X0280896Y0044668D01*
X0281046Y0044582D01*
X0281194Y0044491D01*
X0281340Y0044397D01*
X0281483Y0044299D01*
X0281483Y0046400D02*
X0281280Y0046494D01*
X0281075Y0046584D01*
X0280868Y0046668D01*
X0280659Y0046747D01*
X0280448Y0046821D01*
X0280236Y0046890D01*
X0280021Y0046954D01*
X0279806Y0047013D01*
X0279589Y0047066D01*
X0279370Y0047115D01*
X0279151Y0047158D01*
X0278930Y0047195D01*
X0278709Y0047227D01*
X0278487Y0047254D01*
X0278265Y0047276D01*
X0278042Y0047292D01*
X0277818Y0047303D01*
X0277595Y0047308D01*
X0277371Y0047308D01*
X0277148Y0047303D01*
X0276924Y0047292D01*
X0276701Y0047276D01*
X0276479Y0047254D01*
X0276257Y0047227D01*
X0276036Y0047195D01*
X0275815Y0047158D01*
X0275596Y0047115D01*
X0275377Y0047066D01*
X0275160Y0047013D01*
X0274945Y0046954D01*
X0274730Y0046890D01*
X0274518Y0046821D01*
X0274307Y0046747D01*
X0274098Y0046668D01*
X0273891Y0046584D01*
X0273686Y0046494D01*
X0273483Y0046400D01*
X0285083Y0035500D02*
X0285083Y0035000D01*
X0285083Y0034500D01*
X0285083Y0034000D01*
X0285083Y0033500D01*
D14*
X0283933Y0041000D03*
D15*
X0271133Y0041000D03*
D16*
X0277533Y0040950D03*
M02*
