G75*
%MOIN*%
%OFA0B0*%
%FSLAX25Y25*%
%IPPOS*%
%LPD*%
%AMOC8*
5,1,8,0,0,1.08239X$1,22.5*
%
%ADD10C,0.06506*%
%ADD11R,0.02800X0.05600*%
%ADD12R,0.05600X0.02800*%
%ADD13C,0.01025*%
%ADD14C,0.00900*%
%ADD15R,0.04600X0.05100*%
%ADD16OC8,0.07200*%
%ADD17C,0.07200*%
%ADD18R,0.02372X0.03946*%
%ADD19R,0.10443X0.06899*%
%ADD20R,0.07600X0.07600*%
%ADD21OC8,0.07600*%
%ADD22C,0.15600*%
%ADD23C,0.12411*%
%ADD24R,0.03600X0.05100*%
D10*
X0155083Y0101000D03*
X0145083Y0104000D03*
X0137583Y0111500D03*
X0165083Y0104000D03*
X0172583Y0111500D03*
X0172583Y0130500D03*
X0165083Y0138000D03*
X0155083Y0141500D03*
X0145083Y0138000D03*
X0137583Y0130500D03*
D11*
X0121107Y0077900D03*
X0117957Y0077900D03*
X0114808Y0077900D03*
X0111658Y0077900D03*
X0108509Y0077900D03*
X0105359Y0077900D03*
X0102209Y0077900D03*
X0099060Y0077900D03*
X0099060Y0044100D03*
X0102209Y0044100D03*
X0105359Y0044100D03*
X0108509Y0044100D03*
X0111658Y0044100D03*
X0114808Y0044100D03*
X0117957Y0044100D03*
X0121107Y0044100D03*
D12*
X0126983Y0049976D03*
X0126983Y0053126D03*
X0126983Y0056276D03*
X0126983Y0059425D03*
X0126983Y0062575D03*
X0126983Y0065724D03*
X0126983Y0068874D03*
X0126983Y0072024D03*
X0093183Y0072024D03*
X0093183Y0068874D03*
X0093183Y0065724D03*
X0093183Y0062575D03*
X0093183Y0059425D03*
X0093183Y0056276D03*
X0093183Y0053126D03*
X0093183Y0049976D03*
D13*
X0082121Y0049462D02*
X0079045Y0049462D01*
X0079045Y0052538D01*
X0082121Y0052538D01*
X0082121Y0049462D01*
X0082121Y0050486D02*
X0079045Y0050486D01*
X0079045Y0051510D02*
X0082121Y0051510D01*
X0082121Y0052534D02*
X0079045Y0052534D01*
X0076121Y0049462D02*
X0073045Y0049462D01*
X0073045Y0052538D01*
X0076121Y0052538D01*
X0076121Y0049462D01*
X0076121Y0050486D02*
X0073045Y0050486D01*
X0073045Y0051510D02*
X0076121Y0051510D01*
X0076121Y0052534D02*
X0073045Y0052534D01*
X0073045Y0061038D02*
X0076121Y0061038D01*
X0076121Y0057962D01*
X0073045Y0057962D01*
X0073045Y0061038D01*
X0073045Y0058986D02*
X0076121Y0058986D01*
X0076121Y0060010D02*
X0073045Y0060010D01*
X0073045Y0061034D02*
X0076121Y0061034D01*
X0079045Y0061038D02*
X0082121Y0061038D01*
X0082121Y0057962D01*
X0079045Y0057962D01*
X0079045Y0061038D01*
X0079045Y0058986D02*
X0082121Y0058986D01*
X0082121Y0060010D02*
X0079045Y0060010D01*
X0079045Y0061034D02*
X0082121Y0061034D01*
X0086045Y0087538D02*
X0089121Y0087538D01*
X0089121Y0084462D01*
X0086045Y0084462D01*
X0086045Y0087538D01*
X0086045Y0085486D02*
X0089121Y0085486D01*
X0089121Y0086510D02*
X0086045Y0086510D01*
X0086045Y0087534D02*
X0089121Y0087534D01*
X0092045Y0087538D02*
X0095121Y0087538D01*
X0095121Y0084462D01*
X0092045Y0084462D01*
X0092045Y0087538D01*
X0092045Y0085486D02*
X0095121Y0085486D01*
X0095121Y0086510D02*
X0092045Y0086510D01*
X0092045Y0087534D02*
X0095121Y0087534D01*
X0104045Y0087538D02*
X0107121Y0087538D01*
X0107121Y0084462D01*
X0104045Y0084462D01*
X0104045Y0087538D01*
X0104045Y0085486D02*
X0107121Y0085486D01*
X0107121Y0086510D02*
X0104045Y0086510D01*
X0104045Y0087534D02*
X0107121Y0087534D01*
X0110045Y0087538D02*
X0113121Y0087538D01*
X0113121Y0084462D01*
X0110045Y0084462D01*
X0110045Y0087538D01*
X0110045Y0085486D02*
X0113121Y0085486D01*
X0113121Y0086510D02*
X0110045Y0086510D01*
X0110045Y0087534D02*
X0113121Y0087534D01*
X0113121Y0093538D02*
X0110045Y0093538D01*
X0113121Y0093538D02*
X0113121Y0090462D01*
X0110045Y0090462D01*
X0110045Y0093538D01*
X0110045Y0091486D02*
X0113121Y0091486D01*
X0113121Y0092510D02*
X0110045Y0092510D01*
X0110045Y0093534D02*
X0113121Y0093534D01*
X0110045Y0096962D02*
X0110045Y0100038D01*
X0113121Y0100038D01*
X0113121Y0096962D01*
X0110045Y0096962D01*
X0110045Y0097986D02*
X0113121Y0097986D01*
X0113121Y0099010D02*
X0110045Y0099010D01*
X0110045Y0100034D02*
X0113121Y0100034D01*
X0110045Y0102962D02*
X0110045Y0106038D01*
X0113121Y0106038D01*
X0113121Y0102962D01*
X0110045Y0102962D01*
X0110045Y0103986D02*
X0113121Y0103986D01*
X0113121Y0105010D02*
X0110045Y0105010D01*
X0110045Y0106034D02*
X0113121Y0106034D01*
X0104045Y0106038D02*
X0104045Y0102962D01*
X0104045Y0106038D02*
X0107121Y0106038D01*
X0107121Y0102962D01*
X0104045Y0102962D01*
X0104045Y0103986D02*
X0107121Y0103986D01*
X0107121Y0105010D02*
X0104045Y0105010D01*
X0104045Y0106034D02*
X0107121Y0106034D01*
X0104045Y0100038D02*
X0104045Y0096962D01*
X0104045Y0100038D02*
X0107121Y0100038D01*
X0107121Y0096962D01*
X0104045Y0096962D01*
X0104045Y0097986D02*
X0107121Y0097986D01*
X0107121Y0099010D02*
X0104045Y0099010D01*
X0104045Y0100034D02*
X0107121Y0100034D01*
X0107121Y0093538D02*
X0104045Y0093538D01*
X0107121Y0093538D02*
X0107121Y0090462D01*
X0104045Y0090462D01*
X0104045Y0093538D01*
X0104045Y0091486D02*
X0107121Y0091486D01*
X0107121Y0092510D02*
X0104045Y0092510D01*
X0104045Y0093534D02*
X0107121Y0093534D01*
X0161045Y0116462D02*
X0161045Y0119538D01*
X0164121Y0119538D01*
X0164121Y0116462D01*
X0161045Y0116462D01*
X0161045Y0117486D02*
X0164121Y0117486D01*
X0164121Y0118510D02*
X0161045Y0118510D01*
X0161045Y0119534D02*
X0164121Y0119534D01*
X0161045Y0122462D02*
X0161045Y0125538D01*
X0164121Y0125538D01*
X0164121Y0122462D01*
X0161045Y0122462D01*
X0161045Y0123486D02*
X0164121Y0123486D01*
X0164121Y0124510D02*
X0161045Y0124510D01*
X0161045Y0125534D02*
X0164121Y0125534D01*
X0213045Y0096962D02*
X0216121Y0096962D01*
X0213045Y0096962D02*
X0213045Y0100038D01*
X0216121Y0100038D01*
X0216121Y0096962D01*
X0216121Y0097986D02*
X0213045Y0097986D01*
X0213045Y0099010D02*
X0216121Y0099010D01*
X0216121Y0100034D02*
X0213045Y0100034D01*
X0219045Y0096962D02*
X0222121Y0096962D01*
X0219045Y0096962D02*
X0219045Y0100038D01*
X0222121Y0100038D01*
X0222121Y0096962D01*
X0222121Y0097986D02*
X0219045Y0097986D01*
X0219045Y0099010D02*
X0222121Y0099010D01*
X0222121Y0100034D02*
X0219045Y0100034D01*
X0227545Y0100038D02*
X0230621Y0100038D01*
X0230621Y0096962D01*
X0227545Y0096962D01*
X0227545Y0100038D01*
X0227545Y0097986D02*
X0230621Y0097986D01*
X0230621Y0099010D02*
X0227545Y0099010D01*
X0227545Y0100034D02*
X0230621Y0100034D01*
X0233545Y0100038D02*
X0236621Y0100038D01*
X0236621Y0096962D01*
X0233545Y0096962D01*
X0233545Y0100038D01*
X0233545Y0097986D02*
X0236621Y0097986D01*
X0236621Y0099010D02*
X0233545Y0099010D01*
X0233545Y0100034D02*
X0236621Y0100034D01*
X0214121Y0091038D02*
X0214121Y0087962D01*
X0211045Y0087962D01*
X0211045Y0091038D01*
X0214121Y0091038D01*
X0214121Y0088986D02*
X0211045Y0088986D01*
X0211045Y0090010D02*
X0214121Y0090010D01*
X0214121Y0091034D02*
X0211045Y0091034D01*
X0214121Y0085038D02*
X0214121Y0081962D01*
X0211045Y0081962D01*
X0211045Y0085038D01*
X0214121Y0085038D01*
X0214121Y0082986D02*
X0211045Y0082986D01*
X0211045Y0084010D02*
X0214121Y0084010D01*
X0214121Y0085034D02*
X0211045Y0085034D01*
X0186621Y0047038D02*
X0186621Y0043962D01*
X0183545Y0043962D01*
X0183545Y0047038D01*
X0186621Y0047038D01*
X0186621Y0044986D02*
X0183545Y0044986D01*
X0183545Y0046010D02*
X0186621Y0046010D01*
X0186621Y0047034D02*
X0183545Y0047034D01*
X0186621Y0041038D02*
X0186621Y0037962D01*
X0183545Y0037962D01*
X0183545Y0041038D01*
X0186621Y0041038D01*
X0186621Y0038986D02*
X0183545Y0038986D01*
X0183545Y0040010D02*
X0186621Y0040010D01*
X0186621Y0041034D02*
X0183545Y0041034D01*
D14*
X0080183Y0096650D02*
X0080183Y0099350D01*
X0080183Y0096650D02*
X0076983Y0096650D01*
X0076983Y0099350D01*
X0080183Y0099350D01*
X0080183Y0097549D02*
X0076983Y0097549D01*
X0076983Y0098448D02*
X0080183Y0098448D01*
X0080183Y0099347D02*
X0076983Y0099347D01*
X0080183Y0102650D02*
X0080183Y0105350D01*
X0080183Y0102650D02*
X0076983Y0102650D01*
X0076983Y0105350D01*
X0080183Y0105350D01*
X0080183Y0103549D02*
X0076983Y0103549D01*
X0076983Y0104448D02*
X0080183Y0104448D01*
X0080183Y0105347D02*
X0076983Y0105347D01*
D15*
X0074083Y0075000D03*
X0081083Y0075000D03*
X0077583Y0067000D03*
D16*
X0055083Y0101000D03*
X0119583Y0030000D03*
D17*
X0109583Y0030000D03*
X0099583Y0030000D03*
X0099583Y0020000D03*
X0109583Y0020000D03*
X0119583Y0020000D03*
X0055083Y0051000D03*
X0055083Y0061000D03*
X0055083Y0071000D03*
X0055083Y0081000D03*
X0055083Y0091000D03*
D18*
X0148646Y0115291D03*
X0152583Y0115291D03*
X0156520Y0115291D03*
X0156520Y0126709D03*
X0152583Y0126709D03*
X0148646Y0126709D03*
D19*
X0152583Y0121000D03*
D20*
X0200012Y0038434D03*
D21*
X0210012Y0038434D03*
X0220012Y0038434D03*
X0230012Y0038434D03*
X0230012Y0048434D03*
X0220012Y0048434D03*
X0210012Y0048434D03*
X0200012Y0048434D03*
D22*
X0037646Y0048441D03*
X0037646Y0103559D03*
D23*
X0154969Y0076000D03*
D24*
X0220083Y0071700D03*
X0225083Y0071700D03*
X0230083Y0071700D03*
X0235083Y0071700D03*
X0235083Y0090300D03*
X0230083Y0090300D03*
X0225083Y0090300D03*
X0220083Y0090300D03*
M02*
